<mxfile host="Electron" modified="2024-01-08T16:07:42.825Z" agent="Mozilla/5.0 (Windows NT 10.0; Win64; x64) AppleWebKit/537.36 (KHTML, like Gecko) draw.io/22.1.16 Chrome/120.0.6099.109 Electron/28.1.0 Safari/537.36" etag="uETu0E02yNI7Lk4njeg_" compressed="false" version="22.1.16" type="device">
  <diagram id="9zJ72fLUXO1Tqudbw8W7" name="Page-1">
    <mxGraphModel dx="1434" dy="836" grid="1" gridSize="10" guides="1" tooltips="1" connect="1" arrows="1" fold="1" page="1" pageScale="1" pageWidth="850" pageHeight="1100" math="0" shadow="0">
      <root>
        <object tooltip="" id="0">
          <ag_global_attributes>
            <ag_global_attribute name="Resources" value="" iconName="hammer" min="0" max="5" />
            <ag_global_attribute name="Knowledge" value="" iconName="lightbulb" min="0" max="5" />
            <ag_global_attribute name="Location" value="" iconName="map_pin_ellipse" min="0" max="1" />
            <ag_global_attribute name="Impact" value="" iconName="flame" min="0" max="5" />
          </ag_global_attributes>
          <ag_attributes />
          <ag_computed_attributes />
          <ag_aggregation_functions>
            <ag_aggregation_function name="default" id="6b1d22791hih8" default="activity_w;link" fn="function (collection) { &#xa;    var result = null; &#xa;    if (collection.childAttributes.length == 1) { &#xa;        result = collection.childAttributes[0].attributes;&#xa;        result._marking = collection.childAttributes[0].id;&#xa;    } else { &#xa;        var candidates = []; &#xa;        var worstValue = 0; &#xa;        collection.childAttributes.forEach(function(child) { &#xa;            var value = parseInt(child.computedAttribute); &#xa;            if (value &gt; worstValue) { &#xa;                worstValue = value; &#xa;                candidates = []; &#xa;                candidates.push(child); &#xa;            } else if (value == worstValue) { &#xa;                candidates.push(child); &#xa;            } &#xa;        }); &#xa;        var tiebreaker = function(candidates, name, max) { &#xa;            var min_value = max; &#xa;            candidates.forEach(function(node) { &#xa;                min_value = Math.min(min_value, node.attributes[name]); &#xa;            }); &#xa;            result = []; &#xa;            candidates.forEach(function(node) { &#xa;                if (node.attributes[name] == min_value) { &#xa;                    result.push(node); &#xa;                } &#xa;            }); &#xa;            return result; &#xa;        }; &#xa;        if (candidates.length &gt; 1) { &#xa;            candidates = tiebreaker(candidates, &quot;Resources&quot;, collection.globalAttributes[&quot;Resources&quot;].max); &#xa;            if (candidates.length &gt; 1) { &#xa;                candidates = tiebreaker(candidates, &quot;Knowledge&quot;, collection.globalAttributes[&quot;Knowledge&quot;].max); &#xa;            } &#xa;        } &#xa;        result = candidates[0].attributes;&#xa;        result._marking = candidates[0].id;&#xa;    } &#xa;    return result; &#xa;}" />
            <ag_aggregation_function name="AND" id="gf0d4f199018" default="and" fn="function (collection) { &#xa;    var result = {}; &#xa;    var ids = [];&#xa;    collection.childAttributes.forEach(function(child) { &#xa;    for (var attribute in child.attributes) { &#xa;            if (attribute in result) { &#xa;                result[attribute] += parseInt(child.attributes[attribute]); &#xa;            } else { &#xa;                result[attribute] = parseInt(child.attributes[attribute]); &#xa;            } &#xa;        }&#xa;        ids.push(child.id);&#xa;    }); &#xa;    for (var attribute in result) { &#xa;        if (attribute in collection.globalAttributes) { &#xa;            result[attribute] = Math.min(collection.globalAttributes[attribute].max, result[attribute]); &#xa;        } &#xa;    }&#xa;    result._marking = ids.join(&quot;;&quot;);&#xa;    return result; &#xa;}" />
            <ag_aggregation_function name="Security Control" id="73f575i0ghij5" default="activity_g;activity_y" fn="function (collection) { &#xa;    var result = {}; &#xa;    for (var attribute in collection.localAttributes) { &#xa;        result[attribute] = parseInt(collection.localAttributes[attribute]); &#xa;    } &#xa;    collection.childAttributes.forEach(function(child) { &#xa;        for (var attribute in child.attributes) { &#xa;            if (attribute in collection.globalAttributes) { &#xa;                if (attribute in result) { &#xa;                    result[attribute] += parseInt(child.attributes[attribute]); &#xa;                } &#xa;            } &#xa;        } &#xa;    }); &#xa;    for (var attribute in result) { &#xa;        if (attribute in collection.globalAttributes) { &#xa;            result[attribute] = Math.min(collection.globalAttributes[attribute].max, result[attribute]); &#xa;        } &#xa;    } &#xa;    return result; &#xa;}" />
            <ag_aggregation_function name="Risk" id="egf49jfgj408" default="consequence" fn="function (collection) {  &#xa;    var maxRisk = &quot;L&quot;; &#xa;    var matrix = [ &#xa;        [&quot;L&quot;, &quot;L&quot;, &quot;L&quot;, &quot;L&quot;, &quot;L&quot;], &#xa;        [&quot;L&quot;, &quot;L&quot;, &quot;M&quot;, &quot;M&quot;, &quot;M&quot;], &#xa;        [&quot;L&quot;, &quot;M&quot;, &quot;M&quot;, &quot;S&quot;, &quot;S&quot;], &#xa;        [&quot;L&quot;, &quot;M&quot;, &quot;S&quot;, &quot;V&quot;, &quot;V&quot;], &#xa;        [&quot;L&quot;, &quot;M&quot;, &quot;S&quot;, &quot;V&quot;, &quot;V&quot;], &#xa;    ];&#xa;    ids = [];&#xa; &#xa;    var compareRisk = function(risk1, risk2) { &#xa;        /*&#xa;        * Returns:&#xa;        *  - Null: if one of the parameters is not a character representing a risk&#xa;        *  - Negativ integer: if risk1 &lt; risk2&#xa;        *  - Zero: if risks are equal&#xa;        *  - Positive integer: if risk1 &gt; risk2&#xa;        */&#xa;        var values = [&quot;L&quot;, &quot;M&quot;, &quot;S&quot;, &quot;V&quot;]; &#xa;        var index_risk1 = values.indexOf(risk1); &#xa;        var index_risk2 = values.indexOf(risk2); &#xa; &#xa;        if (index_risk1 == -1 || index_risk2 == -1) { &#xa;            return null; &#xa;        } &#xa;        return index_risk1 - index_risk2; &#xa; &#xa;    } &#xa;     &#xa;    collection.childAttributes.forEach(function(child) {  &#xa;        var impact = 1;  &#xa;        if (child.edgeWeight !== null) {  &#xa;            impact = parseInt(child.edgeWeight);  &#xa;        }&#xa;        var _impact = parseInt(child.attributes._impact) || 0;&#xa;        impact = Math.max(impact - _impact, 1);&#xa;        var af = parseInt(child.computedAttribute) || parseInt(child.attributes._af);&#xa;        risk = matrix[af - 1][impact - 1];&#xa;        result = compareRisk(risk, maxRisk);&#xa;        if (result &gt; 0) { &#xa;            maxRisk = risk;&#xa;            ids = [child.id];&#xa;        } else if (result == 0){&#xa;            ids.push(child.id);&#xa;        }&#xa;    });  &#xa;  &#xa;    return {&#39;_risk&#39;: maxRisk, &quot;_marking&quot;: ids.join(&quot;;&quot;)};  &#xa;}" />
            <ag_aggregation_function name="Impact" id="397423adceb0f" default="" fn="function(collection) {&#xa;    var impact = 0;&#xa;    var result = {}&#xa;    &#xa;    collection.childAttributes.forEach(function(child) {&#xa;        if (&quot;Impact&quot; in child.attributes) {&#xa;            impact += parseInt(child.attributes[&quot;Impact&quot;]);&#xa;        } else if (&quot;Resources&quot; in child.attributes &amp;&amp; &quot;Knowledge&quot; in child.attributes &amp;&amp; &quot;Location&quot; in child.attributes) {&#xa;            result._af = child.computedAttribute&#xa;            result._marking = child.id;&#xa;        }&#xa;    });&#xa;    result._impact = Math.min(impact, collection.globalAttributes[&quot;Impact&quot;].max);&#xa;    &#xa;    return result;&#xa;}" />
          </ag_aggregation_functions>
          <ag_computed_attributes_functions>
            <ag_computed_attributes_function name="default" id="dbg60ff69g9a" default="activity_w;activity_g;activity_y" fn="function (collection) { &#xa;    var colorMatrix = {&#xa;        5: {&quot;fillColor&quot;: &quot;#cc0000&quot;, &quot;fontColor&quot;: &quot;#ffffff&quot;},&#xa;        4: {&quot;fillColor&quot;: &quot;#ff4000&quot;, &quot;fontColor&quot;: &quot;#ffffff&quot;},&#xa;        3: {&quot;fillColor&quot;: &quot;#ffdd00&quot;, &quot;fontColor&quot;: &quot;#000000&quot;},&#xa;        2: {&quot;fillColor&quot;: &quot;#d4ff00&quot;, &quot;fontColor&quot;: &quot;#000000&quot;},&#xa;        1: {&quot;fillColor&quot;: &quot;#40ff00&quot;, &quot;fontColor&quot;: &quot;#000000&quot;}&#xa;    }&#xa;    var matrix = [ &#xa;        [5, 5, 4, 3, 2], &#xa;        [5, 4, 4, 3, 2], &#xa;        [5, 4, 4, 3, 2], &#xa;        [4, 3, 3, 2, 1], &#xa;        [3, 2, 2, 1, 1], &#xa;    ];&#xa;    var result = {};&#xa;    &#xa;    if (&quot;Knowledge&quot; in collection.cellAttributes &amp;&amp; &quot;Resources&quot; in collection.cellAttributes) {&#xa;        var knowledgeIndex = parseInt(collection.cellAttributes[&quot;Knowledge&quot;]) - 1; &#xa;        var resourcesIndex = parseInt(collection.cellAttributes[&quot;Resources&quot;]) - 1;&#xa;        &#xa;        var value = Math.min(5, &#xa;            Math.max(collection.globalAttributes[&quot;Location&quot;].max, &#xa;                Math.max( matrix[knowledgeIndex][resourcesIndex] - parseInt(collection.cellAttributes[&quot;Location&quot;])) &#xa;            ));&#xa;        result = colorMatrix[value] || result;&#xa;        result[&quot;value&quot;] = value;&#xa;    }&#xa;    &#xa;    return result;&#xa;}" />
            <ag_computed_attributes_function name="Risk" id="6c831697g9i0a" default="" fn="function(collection){&#xa;    var riskMatrix = {&#xa;        &quot;V&quot;: {&quot;fillColor&quot;: &quot;#cc0000&quot;, &quot;fontColor&quot;: &quot;#ffffff&quot;},&#xa;        &quot;S&quot;: {&quot;fillColor&quot;: &quot;#ff4000&quot;, &quot;fontColor&quot;: &quot;#ffffff&quot;},&#xa;        &quot;M&quot;: {&quot;fillColor&quot;: &quot;#ffdd00&quot;, &quot;fontColor&quot;: &quot;#000000&quot;},&#xa;        &quot;L&quot;: {&quot;fillColor&quot;: &quot;#40ff00&quot;, &quot;fontColor&quot;: &quot;#000000&quot;},&#xa;    };&#xa;    var result = {};&#xa;    &#xa;    if (&quot;_risk&quot; in collection.cellAttributes) {&#xa;        var risk = collection.cellAttributes[&quot;_risk&quot;];&#xa;        result = riskMatrix[risk] || result;&#xa;        result[&quot;value&quot;] = risk;&#xa;    }&#xa;    &#xa;    return result; &#xa;}" />
          </ag_computed_attributes_functions>
          <mxCell />
        </object>
        <object id="1">
          <ag_attributes />
          <ag_computed_attributes />
          <mxCell parent="0" />
        </object>
        <object label="Angriffsziel&#xa;Steuernder Durchgriff der Disposition" id="Uiwz3RxvrwPI8K2oxm7w-8">
          <ag_attributes />
          <ag_computed_attributes />
          <mxCell style="whiteSpace=wrap;shape=trapezoid;size=0.075;" parent="1" vertex="1">
            <mxGeometry x="1700" y="80" width="224" height="60" as="geometry" />
          </mxCell>
        </object>
        <object id="Uiwz3RxvrwPI8K2oxm7w-62">
          <ag_attributes />
          <ag_computed_attributes />
          <mxCell style="edgeStyle=none;rounded=0;orthogonalLoop=1;jettySize=auto;html=1;strokeWidth=2;strokeColor=#000000;verticalAlign=top;spacingRight=20;" parent="1" source="Uiwz3RxvrwPI8K2oxm7w-9" target="Uiwz3RxvrwPI8K2oxm7w-44" edge="1">
            <mxGeometry relative="1" as="geometry" />
          </mxCell>
        </object>
        <object id="Uiwz3RxvrwPI8K2oxm7w-63">
          <ag_attributes />
          <ag_computed_attributes />
          <mxCell style="edgeStyle=none;rounded=0;orthogonalLoop=1;jettySize=auto;html=1;strokeWidth=2;strokeColor=#000000;verticalAlign=top;spacingRight=20;" parent="1" source="Uiwz3RxvrwPI8K2oxm7w-9" target="Uiwz3RxvrwPI8K2oxm7w-45" edge="1">
            <mxGeometry relative="1" as="geometry" />
          </mxCell>
        </object>
        <object id="Uiwz3RxvrwPI8K2oxm7w-64">
          <ag_attributes />
          <ag_computed_attributes />
          <mxCell style="edgeStyle=none;rounded=0;orthogonalLoop=1;jettySize=auto;html=1;strokeWidth=2;strokeColor=#000000;verticalAlign=top;spacingRight=20;" parent="1" source="Uiwz3RxvrwPI8K2oxm7w-9" target="Uiwz3RxvrwPI8K2oxm7w-46" edge="1">
            <mxGeometry relative="1" as="geometry" />
          </mxCell>
        </object>
        <object label="Zugkollision herbeiführen" id="Uiwz3RxvrwPI8K2oxm7w-9">
          <ag_attributes label="Fälschung ortsfester Referenzpunkte" Resources="4" Knowledge="4" Location="1" _marking="Uiwz3RxvrwPI8K2oxm7w-44" />
          <ag_computed_attributes fillColor="#40ff00" fontColor="#000000" value="1" />
          <ag_computed_attributes_function_reference ag_computed_attributes_function_reference="dbg60ff69g9a" />
          <ag_aggregation_function_reference ag_aggregation_function_reference="6b1d22791hih8" />
          <mxCell style="verticalAlign=top;align=center;fillColor=#FFFFFF;gradientColor=none;labelBackgroundColor=none;rounded=0;whiteSpace=wrap;shape=attackgraphs.node;spacingRight=20;" parent="1" vertex="1">
            <mxGeometry x="2110" y="320" width="180" height="48" as="geometry" />
          </mxCell>
        </object>
        <object id="Uiwz3RxvrwPI8K2oxm7w-57">
          <ag_attributes />
          <ag_computed_attributes />
          <mxCell style="edgeStyle=none;rounded=0;orthogonalLoop=1;jettySize=auto;html=1;strokeWidth=2;strokeColor=#000000;verticalAlign=top;spacingRight=20;" parent="1" source="Uiwz3RxvrwPI8K2oxm7w-10" target="Uiwz3RxvrwPI8K2oxm7w-47" edge="1">
            <mxGeometry relative="1" as="geometry" />
          </mxCell>
        </object>
        <object id="Uiwz3RxvrwPI8K2oxm7w-58">
          <ag_attributes />
          <ag_computed_attributes />
          <mxCell style="edgeStyle=none;rounded=0;orthogonalLoop=1;jettySize=auto;html=1;strokeWidth=2;strokeColor=#000000;verticalAlign=top;spacingRight=20;" parent="1" source="Uiwz3RxvrwPI8K2oxm7w-10" target="Uiwz3RxvrwPI8K2oxm7w-48" edge="1">
            <mxGeometry relative="1" as="geometry" />
          </mxCell>
        </object>
        <object id="Uiwz3RxvrwPI8K2oxm7w-59">
          <ag_attributes />
          <ag_computed_attributes />
          <mxCell style="edgeStyle=none;rounded=0;orthogonalLoop=1;jettySize=auto;html=1;strokeWidth=2;strokeColor=#000000;verticalAlign=top;spacingRight=20;" parent="1" source="Uiwz3RxvrwPI8K2oxm7w-10" target="Uiwz3RxvrwPI8K2oxm7w-46" edge="1">
            <mxGeometry relative="1" as="geometry" />
          </mxCell>
        </object>
        <object id="Uiwz3RxvrwPI8K2oxm7w-60">
          <ag_attributes />
          <ag_computed_attributes />
          <mxCell style="edgeStyle=none;rounded=0;orthogonalLoop=1;jettySize=auto;html=1;strokeWidth=2;strokeColor=#000000;verticalAlign=top;spacingRight=20;" parent="1" source="Uiwz3RxvrwPI8K2oxm7w-10" target="Uiwz3RxvrwPI8K2oxm7w-45" edge="1">
            <mxGeometry relative="1" as="geometry" />
          </mxCell>
        </object>
        <object id="Uiwz3RxvrwPI8K2oxm7w-61">
          <ag_attributes />
          <ag_computed_attributes />
          <mxCell style="edgeStyle=none;rounded=0;orthogonalLoop=1;jettySize=auto;html=1;strokeWidth=2;strokeColor=#000000;verticalAlign=top;spacingRight=20;" parent="1" source="Uiwz3RxvrwPI8K2oxm7w-10" target="Uiwz3RxvrwPI8K2oxm7w-44" edge="1">
            <mxGeometry relative="1" as="geometry" />
          </mxCell>
        </object>
        <object label="Verspätung provozieren" id="Uiwz3RxvrwPI8K2oxm7w-10">
          <ag_attributes label="Spoofing der digitalen Zugschlussscheibe" Resources="4" Knowledge="4" Location="1" _marking="Uiwz3RxvrwPI8K2oxm7w-46" />
          <ag_computed_attributes fillColor="#40ff00" fontColor="#000000" value="1" />
          <ag_computed_attributes_function_reference ag_computed_attributes_function_reference="dbg60ff69g9a" />
          <ag_aggregation_function_reference ag_aggregation_function_reference="6b1d22791hih8" />
          <mxCell style="verticalAlign=top;align=center;fillColor=#FFFFFF;gradientColor=none;labelBackgroundColor=none;rounded=0;whiteSpace=wrap;shape=attackgraphs.node;spacingRight=20;" parent="1" vertex="1">
            <mxGeometry x="1500" y="320" width="180" height="48" as="geometry" />
          </mxCell>
        </object>
        <object id="Uiwz3RxvrwPI8K2oxm7w-52">
          <ag_attributes />
          <ag_computed_attributes />
          <mxCell style="edgeStyle=none;rounded=0;orthogonalLoop=1;jettySize=auto;html=1;strokeWidth=2;strokeColor=#000000;verticalAlign=top;spacingRight=20;" parent="1" source="Uiwz3RxvrwPI8K2oxm7w-11" target="Uiwz3RxvrwPI8K2oxm7w-47" edge="1">
            <mxGeometry relative="1" as="geometry" />
          </mxCell>
        </object>
        <object id="Uiwz3RxvrwPI8K2oxm7w-53">
          <ag_attributes />
          <ag_computed_attributes />
          <mxCell style="edgeStyle=none;rounded=0;orthogonalLoop=1;jettySize=auto;html=1;strokeWidth=2;strokeColor=#000000;verticalAlign=top;spacingRight=20;" parent="1" source="Uiwz3RxvrwPI8K2oxm7w-11" target="Uiwz3RxvrwPI8K2oxm7w-48" edge="1">
            <mxGeometry relative="1" as="geometry" />
          </mxCell>
        </object>
        <object id="Uiwz3RxvrwPI8K2oxm7w-56">
          <ag_attributes />
          <ag_computed_attributes />
          <mxCell style="edgeStyle=none;rounded=0;orthogonalLoop=1;jettySize=auto;html=1;strokeWidth=2;strokeColor=#000000;verticalAlign=top;spacingRight=20;" parent="1" source="Uiwz3RxvrwPI8K2oxm7w-11" target="Uiwz3RxvrwPI8K2oxm7w-44" edge="1">
            <mxGeometry relative="1" as="geometry" />
          </mxCell>
        </object>
        <object label="Chaos schüren" id="Uiwz3RxvrwPI8K2oxm7w-11">
          <ag_attributes label="Fälschung ortsfester Referenzpunkte" Resources="4" Knowledge="4" Location="1" _marking="Uiwz3RxvrwPI8K2oxm7w-44" />
          <ag_computed_attributes fillColor="#40ff00" fontColor="#000000" value="1" />
          <ag_computed_attributes_function_reference ag_computed_attributes_function_reference="dbg60ff69g9a" />
          <ag_aggregation_function_reference ag_aggregation_function_reference="6b1d22791hih8" />
          <mxCell style="verticalAlign=top;align=center;fillColor=#FFFFFF;gradientColor=none;labelBackgroundColor=none;rounded=0;whiteSpace=wrap;shape=attackgraphs.node;spacingRight=20;" parent="1" vertex="1">
            <mxGeometry x="1190" y="320" width="180" height="48" as="geometry" />
          </mxCell>
        </object>
        <object label="3" id="Uiwz3RxvrwPI8K2oxm7w-31">
          <ag_attributes />
          <ag_computed_attributes />
          <mxCell style="edgeStyle=none;rounded=0;orthogonalLoop=1;jettySize=auto;html=1;strokeWidth=2;strokeColor=#000000;fontSize=15;" parent="1" source="Uiwz3RxvrwPI8K2oxm7w-13" target="Uiwz3RxvrwPI8K2oxm7w-10" edge="1">
            <mxGeometry relative="1" as="geometry" />
          </mxCell>
        </object>
        <object label="4" id="Uiwz3RxvrwPI8K2oxm7w-32">
          <ag_attributes />
          <ag_computed_attributes />
          <mxCell style="edgeStyle=none;rounded=0;orthogonalLoop=1;jettySize=auto;html=1;strokeWidth=2;strokeColor=#000000;fontSize=15;" parent="1" source="Uiwz3RxvrwPI8K2oxm7w-13" target="Uiwz3RxvrwPI8K2oxm7w-9" edge="1">
            <mxGeometry relative="1" as="geometry" />
          </mxCell>
        </object>
        <object label="Finanzieller Schaden&#xa;Betreiber" id="Uiwz3RxvrwPI8K2oxm7w-13">
          <ag_attributes _risk="L" _marking="Uiwz3RxvrwPI8K2oxm7w-10;Uiwz3RxvrwPI8K2oxm7w-9" />
          <ag_computed_attributes fillColor="#40ff00" fontColor="#000000" value="L" />
          <ag_aggregation_function_reference ag_aggregation_function_reference="egf49jfgj408" />
          <ag_computed_attributes_function_reference ag_computed_attributes_function_reference="6c831697g9i0a" />
          <mxCell style="verticalAlign=middle;align=center;fillColor=#FFFFFF;gradientColor=none;labelBackgroundColor=none;rounded=1;whiteSpace=wrap;shape=attackgraphs.node;" parent="1" vertex="1">
            <mxGeometry x="1910" y="190" width="180" height="48" as="geometry" />
          </mxCell>
        </object>
        <object label="5" id="Uiwz3RxvrwPI8K2oxm7w-23">
          <ag_attributes />
          <ag_computed_attributes />
          <mxCell style="rounded=0;orthogonalLoop=1;jettySize=auto;html=1;exitX=0.5;exitY=1;exitDx=0;exitDy=0;entryX=0.5;entryY=0;entryDx=0;entryDy=0;strokeWidth=2;strokeColor=#000000;fontSize=15;" parent="1" source="Uiwz3RxvrwPI8K2oxm7w-14" target="Uiwz3RxvrwPI8K2oxm7w-9" edge="1">
            <mxGeometry relative="1" as="geometry" />
          </mxCell>
        </object>
        <object label="Verletzung der körperlichen Unversehrtheit" id="Uiwz3RxvrwPI8K2oxm7w-14">
          <ag_attributes _risk="L" _marking="Uiwz3RxvrwPI8K2oxm7w-9" />
          <ag_computed_attributes fillColor="#40ff00" fontColor="#000000" value="L" />
          <ag_aggregation_function_reference ag_aggregation_function_reference="egf49jfgj408" />
          <ag_computed_attributes_function_reference ag_computed_attributes_function_reference="6c831697g9i0a" />
          <mxCell style="verticalAlign=middle;align=center;fillColor=#FFFFFF;gradientColor=none;labelBackgroundColor=none;rounded=1;whiteSpace=wrap;shape=attackgraphs.node;" parent="1" vertex="1">
            <mxGeometry x="2140" y="190" width="180" height="48" as="geometry" />
          </mxCell>
        </object>
        <object label="2" id="Uiwz3RxvrwPI8K2oxm7w-30">
          <ag_attributes />
          <ag_computed_attributes />
          <mxCell style="edgeStyle=none;rounded=0;orthogonalLoop=1;jettySize=auto;html=1;strokeWidth=2;strokeColor=#000000;fontSize=15;" parent="1" source="Uiwz3RxvrwPI8K2oxm7w-15" target="Uiwz3RxvrwPI8K2oxm7w-10" edge="1">
            <mxGeometry relative="1" as="geometry" />
          </mxCell>
        </object>
        <object label="3" id="Uiwz3RxvrwPI8K2oxm7w-54">
          <ag_attributes />
          <ag_computed_attributes />
          <mxCell style="edgeStyle=none;rounded=0;orthogonalLoop=1;jettySize=auto;html=1;strokeWidth=2;strokeColor=#000000;fontSize=15;" parent="1" source="Uiwz3RxvrwPI8K2oxm7w-15" target="Uiwz3RxvrwPI8K2oxm7w-11" edge="1">
            <mxGeometry relative="1" as="geometry" />
          </mxCell>
        </object>
        <object label="Einschränkung einer kritischen Dienstleistung" id="Uiwz3RxvrwPI8K2oxm7w-15">
          <ag_attributes _risk="L" _marking="Uiwz3RxvrwPI8K2oxm7w-10;Uiwz3RxvrwPI8K2oxm7w-11" />
          <ag_computed_attributes fillColor="#40ff00" fontColor="#000000" value="L" />
          <ag_computed_attributes_function_reference ag_computed_attributes_function_reference="6c831697g9i0a" />
          <ag_aggregation_function_reference ag_aggregation_function_reference="egf49jfgj408" />
          <mxCell style="verticalAlign=middle;align=center;fillColor=#FFFFFF;gradientColor=none;labelBackgroundColor=none;rounded=1;whiteSpace=wrap;shape=attackgraphs.node;" parent="1" vertex="1">
            <mxGeometry x="1180" y="190" width="180" height="48" as="geometry" />
          </mxCell>
        </object>
        <object label="2" id="Uiwz3RxvrwPI8K2oxm7w-33">
          <ag_attributes />
          <ag_computed_attributes />
          <mxCell style="edgeStyle=none;rounded=0;orthogonalLoop=1;jettySize=auto;html=1;strokeWidth=2;strokeColor=#000000;fontSize=15;" parent="1" source="Uiwz3RxvrwPI8K2oxm7w-16" target="Uiwz3RxvrwPI8K2oxm7w-11" edge="1">
            <mxGeometry relative="1" as="geometry" />
          </mxCell>
        </object>
        <object label="2" id="Uiwz3RxvrwPI8K2oxm7w-34">
          <ag_attributes />
          <ag_computed_attributes />
          <mxCell style="edgeStyle=none;rounded=0;orthogonalLoop=1;jettySize=auto;html=1;strokeWidth=2;strokeColor=#000000;fontSize=15;" parent="1" source="Uiwz3RxvrwPI8K2oxm7w-16" target="Uiwz3RxvrwPI8K2oxm7w-10" edge="1">
            <mxGeometry relative="1" as="geometry" />
          </mxCell>
        </object>
        <object label="2" id="Uiwz3RxvrwPI8K2oxm7w-35">
          <ag_attributes />
          <ag_computed_attributes />
          <mxCell style="edgeStyle=none;rounded=0;orthogonalLoop=1;jettySize=auto;html=1;strokeWidth=2;strokeColor=#000000;fontSize=15;" parent="1" source="Uiwz3RxvrwPI8K2oxm7w-16" target="Uiwz3RxvrwPI8K2oxm7w-18" edge="1">
            <mxGeometry relative="1" as="geometry" />
          </mxCell>
        </object>
        <object label="Reputationsschaden Betreiber" id="Uiwz3RxvrwPI8K2oxm7w-16">
          <ag_attributes _risk="L" _marking="Uiwz3RxvrwPI8K2oxm7w-11;Uiwz3RxvrwPI8K2oxm7w-10;Uiwz3RxvrwPI8K2oxm7w-18" />
          <ag_computed_attributes fillColor="#40ff00" fontColor="#000000" value="L" />
          <ag_aggregation_function_reference ag_aggregation_function_reference="egf49jfgj408" />
          <ag_computed_attributes_function_reference ag_computed_attributes_function_reference="6c831697g9i0a" />
          <mxCell style="verticalAlign=middle;align=center;fillColor=#FFFFFF;gradientColor=none;labelBackgroundColor=none;rounded=1;whiteSpace=wrap;shape=attackgraphs.node;" parent="1" vertex="1">
            <mxGeometry x="1400" y="190" width="213" height="48" as="geometry" />
          </mxCell>
        </object>
        <object id="Uiwz3RxvrwPI8K2oxm7w-49">
          <ag_attributes />
          <ag_computed_attributes />
          <mxCell style="edgeStyle=none;rounded=0;orthogonalLoop=1;jettySize=auto;html=1;strokeWidth=2;strokeColor=#000000;verticalAlign=top;spacingRight=20;" parent="1" source="Uiwz3RxvrwPI8K2oxm7w-18" target="Uiwz3RxvrwPI8K2oxm7w-44" edge="1">
            <mxGeometry relative="1" as="geometry" />
          </mxCell>
        </object>
        <object id="Uiwz3RxvrwPI8K2oxm7w-50">
          <ag_attributes />
          <ag_computed_attributes />
          <mxCell style="edgeStyle=none;rounded=0;orthogonalLoop=1;jettySize=auto;html=1;strokeWidth=2;strokeColor=#000000;verticalAlign=top;spacingRight=20;" parent="1" source="Uiwz3RxvrwPI8K2oxm7w-18" target="Uiwz3RxvrwPI8K2oxm7w-45" edge="1">
            <mxGeometry relative="1" as="geometry" />
          </mxCell>
        </object>
        <object id="Uiwz3RxvrwPI8K2oxm7w-51">
          <ag_attributes />
          <ag_computed_attributes />
          <mxCell style="edgeStyle=none;rounded=0;orthogonalLoop=1;jettySize=auto;html=1;strokeWidth=2;strokeColor=#000000;verticalAlign=top;spacingRight=20;" parent="1" source="Uiwz3RxvrwPI8K2oxm7w-18" target="Uiwz3RxvrwPI8K2oxm7w-46" edge="1">
            <mxGeometry relative="1" as="geometry" />
          </mxCell>
        </object>
        <object label="Fahrwege manipulieren" id="Uiwz3RxvrwPI8K2oxm7w-18">
          <ag_attributes label="Fälschung ortsfester Referenzpunkte" Resources="4" Knowledge="4" Location="1" _marking="Uiwz3RxvrwPI8K2oxm7w-44" />
          <ag_computed_attributes fillColor="#40ff00" fontColor="#000000" value="1" />
          <ag_computed_attributes_function_reference ag_computed_attributes_function_reference="dbg60ff69g9a" />
          <ag_aggregation_function_reference ag_aggregation_function_reference="6b1d22791hih8" />
          <mxCell style="verticalAlign=top;align=center;fillColor=#FFFFFF;gradientColor=none;labelBackgroundColor=none;rounded=0;whiteSpace=wrap;shape=attackgraphs.node;spacingRight=20;" parent="1" vertex="1">
            <mxGeometry x="1790" y="320" width="180" height="48" as="geometry" />
          </mxCell>
        </object>
        <object label="2" id="Uiwz3RxvrwPI8K2oxm7w-36">
          <ag_attributes />
          <ag_computed_attributes />
          <mxCell style="edgeStyle=none;rounded=0;orthogonalLoop=1;jettySize=auto;html=1;strokeWidth=2;strokeColor=#000000;fontSize=15;" parent="1" source="Uiwz3RxvrwPI8K2oxm7w-19" target="Uiwz3RxvrwPI8K2oxm7w-18" edge="1">
            <mxGeometry relative="1" as="geometry" />
          </mxCell>
        </object>
        <object label="Marktmanipulation&#xa;zum Schaden/Vorteil einer Gruppe" id="Uiwz3RxvrwPI8K2oxm7w-19">
          <ag_attributes _risk="L" _marking="Uiwz3RxvrwPI8K2oxm7w-18" />
          <ag_computed_attributes fillColor="#40ff00" fontColor="#000000" value="L" />
          <ag_aggregation_function_reference ag_aggregation_function_reference="egf49jfgj408" />
          <ag_computed_attributes_function_reference ag_computed_attributes_function_reference="6c831697g9i0a" />
          <mxCell style="verticalAlign=middle;align=center;fillColor=#FFFFFF;gradientColor=none;labelBackgroundColor=none;rounded=1;whiteSpace=wrap;shape=attackgraphs.node;" parent="1" vertex="1">
            <mxGeometry x="1660" y="190" width="200" height="48" as="geometry" />
          </mxCell>
        </object>
        <object id="1qkWPqTPLnTGLn8MYxJF-53">
          <ag_attributes />
          <ag_computed_attributes />
          <mxCell style="edgeStyle=none;rounded=0;orthogonalLoop=1;jettySize=auto;html=1;strokeWidth=2;strokeColor=#000000;verticalAlign=top;spacingRight=20;" parent="1" source="Uiwz3RxvrwPI8K2oxm7w-37" target="1qkWPqTPLnTGLn8MYxJF-52" edge="1">
            <mxGeometry relative="1" as="geometry">
              <mxPoint x="1557.1224242424246" y="758" as="sourcePoint" />
              <mxPoint x="1524.2941414141414" y="808" as="targetPoint" />
            </mxGeometry>
          </mxCell>
        </object>
        <object id="1qkWPqTPLnTGLn8MYxJF-56">
          <ag_attributes />
          <ag_computed_attributes />
          <mxCell style="edgeStyle=none;rounded=0;orthogonalLoop=1;jettySize=auto;html=1;strokeWidth=2;strokeColor=#000000;verticalAlign=top;spacingRight=20;" parent="1" source="Uiwz3RxvrwPI8K2oxm7w-37" target="1qkWPqTPLnTGLn8MYxJF-54" edge="1">
            <mxGeometry relative="1" as="geometry" />
          </mxCell>
        </object>
        <object id="1qkWPqTPLnTGLn8MYxJF-57">
          <ag_attributes />
          <ag_computed_attributes />
          <mxCell style="edgeStyle=none;rounded=0;orthogonalLoop=1;jettySize=auto;html=1;strokeWidth=2;strokeColor=#000000;verticalAlign=top;spacingRight=20;" parent="1" source="Uiwz3RxvrwPI8K2oxm7w-37" target="1qkWPqTPLnTGLn8MYxJF-55" edge="1">
            <mxGeometry relative="1" as="geometry" />
          </mxCell>
        </object>
        <object label="" id="1qkWPqTPLnTGLn8MYxJF-59">
          <ag_attributes />
          <ag_computed_attributes />
          <mxCell style="edgeStyle=none;rounded=0;orthogonalLoop=1;jettySize=auto;html=1;strokeWidth=2;strokeColor=#000000;verticalAlign=top;spacingRight=20;" parent="1" source="Uiwz3RxvrwPI8K2oxm7w-37" target="1qkWPqTPLnTGLn8MYxJF-55" edge="1">
            <mxGeometry relative="1" as="geometry" />
          </mxCell>
        </object>
        <object id="1qkWPqTPLnTGLn8MYxJF-60">
          <ag_attributes />
          <ag_computed_attributes />
          <mxCell style="edgeStyle=none;rounded=0;orthogonalLoop=1;jettySize=auto;html=1;strokeWidth=2;entryX=0.177;entryY=-0.017;entryDx=0;entryDy=0;entryPerimeter=0;strokeColor=#000000;verticalAlign=top;spacingRight=20;" parent="1" source="Uiwz3RxvrwPI8K2oxm7w-37" target="1qkWPqTPLnTGLn8MYxJF-58" edge="1">
            <mxGeometry relative="1" as="geometry">
              <mxPoint x="1769" y="790" as="targetPoint" />
            </mxGeometry>
          </mxCell>
        </object>
        <object id="1qkWPqTPLnTGLn8MYxJF-17">
          <ag_attributes />
          <ag_computed_attributes />
          <mxCell style="edgeStyle=none;rounded=0;orthogonalLoop=1;jettySize=auto;html=1;strokeWidth=2;strokeColor=#000000;verticalAlign=top;spacingRight=20;" parent="1" source="Uiwz3RxvrwPI8K2oxm7w-39" target="1qkWPqTPLnTGLn8MYxJF-15" edge="1">
            <mxGeometry relative="1" as="geometry" />
          </mxCell>
        </object>
        <object id="1qkWPqTPLnTGLn8MYxJF-18">
          <ag_attributes />
          <ag_computed_attributes />
          <mxCell style="edgeStyle=none;rounded=0;orthogonalLoop=1;jettySize=auto;html=1;strokeWidth=2;strokeColor=#000000;verticalAlign=top;spacingRight=20;entryX=0.447;entryY=0.027;entryDx=0;entryDy=0;entryPerimeter=0;" parent="1" source="Uiwz3RxvrwPI8K2oxm7w-39" target="1qkWPqTPLnTGLn8MYxJF-16" edge="1">
            <mxGeometry relative="1" as="geometry">
              <mxPoint x="910" y="780" as="targetPoint" />
            </mxGeometry>
          </mxCell>
        </object>
        <object label="Manipulation des Datenbestandes (Digitaler Zwilling)" id="Uiwz3RxvrwPI8K2oxm7w-39">
          <ag_attributes label="NaN" Resources="4" Knowledge="5" Location="0" _marking="1qkWPqTPLnTGLn8MYxJF-16" />
          <ag_computed_attributes fillColor="#40ff00" fontColor="#000000" value="1" />
          <ag_computed_attributes_function_reference ag_computed_attributes_function_reference="dbg60ff69g9a" />
          <ag_aggregation_function_reference ag_aggregation_function_reference="6b1d22791hih8" />
          <mxCell style="verticalAlign=top;align=center;fillColor=#FFFFFF;gradientColor=none;labelBackgroundColor=none;rounded=0;whiteSpace=wrap;shape=attackgraphs.node;spacingRight=20;" parent="1" vertex="1">
            <mxGeometry x="760" y="680" width="210" height="60" as="geometry" />
          </mxCell>
        </object>
        <object id="1qkWPqTPLnTGLn8MYxJF-39">
          <ag_attributes />
          <ag_computed_attributes />
          <mxCell style="edgeStyle=none;rounded=0;orthogonalLoop=1;jettySize=auto;html=1;strokeWidth=2;strokeColor=#000000;verticalAlign=top;spacingRight=20;" parent="1" source="Uiwz3RxvrwPI8K2oxm7w-40" target="1qkWPqTPLnTGLn8MYxJF-36" edge="1">
            <mxGeometry relative="1" as="geometry" />
          </mxCell>
        </object>
        <object label="Digitale Karte manipulieren" id="Uiwz3RxvrwPI8K2oxm7w-40">
          <ag_attributes label="NaN" Resources="5" Knowledge="5" Location="0" _marking="1qkWPqTPLnTGLn8MYxJF-36" />
          <ag_computed_attributes fillColor="#40ff00" fontColor="#000000" value="1" />
          <ag_computed_attributes_function_reference ag_computed_attributes_function_reference="dbg60ff69g9a" />
          <ag_aggregation_function_reference ag_aggregation_function_reference="6b1d22791hih8" />
          <mxCell style="verticalAlign=top;align=center;fillColor=#FFFFFF;gradientColor=none;labelBackgroundColor=none;rounded=0;whiteSpace=wrap;shape=attackgraphs.node;spacingRight=20;" parent="1" vertex="1">
            <mxGeometry x="2910" y="680" width="180" height="60" as="geometry" />
          </mxCell>
        </object>
        <object id="1qkWPqTPLnTGLn8MYxJF-3">
          <ag_attributes />
          <ag_computed_attributes />
          <mxCell style="rounded=0;orthogonalLoop=1;jettySize=auto;html=1;strokeWidth=2;strokeColor=#000000;verticalAlign=top;spacingRight=20;" parent="1" source="Uiwz3RxvrwPI8K2oxm7w-41" target="1qkWPqTPLnTGLn8MYxJF-1" edge="1">
            <mxGeometry relative="1" as="geometry">
              <mxPoint x="990" y="770" as="sourcePoint" />
            </mxGeometry>
          </mxCell>
        </object>
        <object id="1qkWPqTPLnTGLn8MYxJF-4">
          <ag_attributes />
          <ag_computed_attributes />
          <mxCell style="edgeStyle=none;rounded=0;orthogonalLoop=1;jettySize=auto;html=1;strokeWidth=2;strokeColor=#000000;verticalAlign=top;spacingRight=20;" parent="1" source="Uiwz3RxvrwPI8K2oxm7w-41" target="1qkWPqTPLnTGLn8MYxJF-2" edge="1">
            <mxGeometry relative="1" as="geometry" />
          </mxCell>
        </object>
        <object id="1qkWPqTPLnTGLn8MYxJF-44">
          <ag_attributes />
          <ag_computed_attributes />
          <mxCell style="edgeStyle=none;rounded=0;orthogonalLoop=1;jettySize=auto;html=1;strokeWidth=2;strokeColor=#000000;verticalAlign=top;spacingRight=20;" parent="1" source="Uiwz3RxvrwPI8K2oxm7w-42" target="1qkWPqTPLnTGLn8MYxJF-43" edge="1">
            <mxGeometry relative="1" as="geometry" />
          </mxCell>
        </object>
        <object id="1qkWPqTPLnTGLn8MYxJF-45">
          <ag_attributes />
          <ag_computed_attributes />
          <mxCell style="edgeStyle=none;rounded=0;orthogonalLoop=1;jettySize=auto;html=1;strokeWidth=2;strokeColor=#000000;verticalAlign=top;spacingRight=20;" parent="1" source="Uiwz3RxvrwPI8K2oxm7w-42" target="1qkWPqTPLnTGLn8MYxJF-42" edge="1">
            <mxGeometry relative="1" as="geometry" />
          </mxCell>
        </object>
        <object label="Kommunikation manipulieren" id="Uiwz3RxvrwPI8K2oxm7w-42">
          <ag_attributes label="NaN" Resources="4" Knowledge="5" Location="1" _marking="1qkWPqTPLnTGLn8MYxJF-43" />
          <ag_computed_attributes fillColor="#40ff00" fontColor="#000000" value="1" />
          <ag_computed_attributes_function_reference ag_computed_attributes_function_reference="dbg60ff69g9a" />
          <ag_aggregation_function_reference ag_aggregation_function_reference="6b1d22791hih8" />
          <mxCell style="verticalAlign=top;align=center;fillColor=#FFFFFF;gradientColor=none;labelBackgroundColor=none;rounded=0;whiteSpace=wrap;shape=attackgraphs.node;spacingRight=20;" parent="1" vertex="1">
            <mxGeometry x="2570" y="680" width="180" height="60" as="geometry" />
          </mxCell>
        </object>
        <object id="1qkWPqTPLnTGLn8MYxJF-23">
          <ag_attributes />
          <ag_computed_attributes />
          <mxCell style="edgeStyle=none;rounded=0;orthogonalLoop=1;jettySize=auto;html=1;entryX=1;entryY=0.5;entryDx=0;entryDy=0;entryPerimeter=0;strokeWidth=2;strokeColor=#000000;verticalAlign=top;spacingRight=20;" parent="1" source="Uiwz3RxvrwPI8K2oxm7w-43" target="1qkWPqTPLnTGLn8MYxJF-22" edge="1">
            <mxGeometry relative="1" as="geometry" />
          </mxCell>
        </object>
        <object id="1qkWPqTPLnTGLn8MYxJF-26">
          <ag_attributes />
          <ag_computed_attributes />
          <mxCell style="edgeStyle=none;rounded=0;orthogonalLoop=1;jettySize=auto;html=1;strokeWidth=2;strokeColor=#000000;verticalAlign=top;spacingRight=20;" parent="1" source="Uiwz3RxvrwPI8K2oxm7w-43" target="1qkWPqTPLnTGLn8MYxJF-19" edge="1">
            <mxGeometry relative="1" as="geometry" />
          </mxCell>
        </object>
        <object id="Uiwz3RxvrwPI8K2oxm7w-66">
          <ag_attributes />
          <ag_computed_attributes />
          <mxCell style="edgeStyle=none;rounded=0;orthogonalLoop=1;jettySize=auto;html=1;strokeWidth=2;strokeColor=#000000;verticalAlign=top;spacingRight=20;" parent="1" source="Uiwz3RxvrwPI8K2oxm7w-44" target="Uiwz3RxvrwPI8K2oxm7w-39" edge="1">
            <mxGeometry relative="1" as="geometry" />
          </mxCell>
        </object>
        <object id="Uiwz3RxvrwPI8K2oxm7w-72">
          <ag_attributes />
          <ag_computed_attributes />
          <mxCell style="edgeStyle=none;rounded=0;orthogonalLoop=1;jettySize=auto;html=1;strokeWidth=2;strokeColor=#000000;verticalAlign=top;spacingRight=20;" parent="1" source="Uiwz3RxvrwPI8K2oxm7w-44" target="Uiwz3RxvrwPI8K2oxm7w-42" edge="1">
            <mxGeometry relative="1" as="geometry" />
          </mxCell>
        </object>
        <object id="Uiwz3RxvrwPI8K2oxm7w-73">
          <ag_attributes />
          <ag_computed_attributes />
          <mxCell style="edgeStyle=none;rounded=0;orthogonalLoop=1;jettySize=auto;html=1;strokeWidth=2;strokeColor=#000000;verticalAlign=top;spacingRight=20;" parent="1" source="Uiwz3RxvrwPI8K2oxm7w-44" target="Uiwz3RxvrwPI8K2oxm7w-43" edge="1">
            <mxGeometry relative="1" as="geometry" />
          </mxCell>
        </object>
        <object id="1qkWPqTPLnTGLn8MYxJF-12">
          <ag_attributes />
          <ag_computed_attributes />
          <mxCell style="edgeStyle=none;rounded=0;orthogonalLoop=1;jettySize=auto;html=1;strokeWidth=2;strokeColor=#000000;verticalAlign=top;spacingRight=20;" parent="1" source="Uiwz3RxvrwPI8K2oxm7w-44" target="1qkWPqTPLnTGLn8MYxJF-5" edge="1">
            <mxGeometry relative="1" as="geometry" />
          </mxCell>
        </object>
        <object label="Zugposition manipulieren" id="Uiwz3RxvrwPI8K2oxm7w-44">
          <ag_attributes label="Fälschung ortsfester Referenzpunkte" Resources="4" Knowledge="4" Location="1" _marking="Uiwz3RxvrwPI8K2oxm7w-43" />
          <ag_computed_attributes fillColor="#40ff00" fontColor="#000000" value="1" />
          <ag_computed_attributes_function_reference ag_computed_attributes_function_reference="dbg60ff69g9a" />
          <ag_aggregation_function_reference ag_aggregation_function_reference="6b1d22791hih8" />
          <mxCell style="verticalAlign=top;align=center;fillColor=#FFFFFF;gradientColor=none;labelBackgroundColor=none;rounded=0;whiteSpace=wrap;shape=attackgraphs.node;spacingRight=20;" parent="1" vertex="1">
            <mxGeometry x="1660" y="480" width="180" height="60" as="geometry" />
          </mxCell>
        </object>
        <object id="Uiwz3RxvrwPI8K2oxm7w-70">
          <ag_attributes />
          <ag_computed_attributes />
          <mxCell style="edgeStyle=none;rounded=0;orthogonalLoop=1;jettySize=auto;html=1;strokeWidth=2;strokeColor=#000000;verticalAlign=top;spacingRight=20;" parent="1" source="Uiwz3RxvrwPI8K2oxm7w-45" target="Uiwz3RxvrwPI8K2oxm7w-42" edge="1">
            <mxGeometry relative="1" as="geometry" />
          </mxCell>
        </object>
        <object id="Y63ZTUztEMgZLybOCHic-3">
          <ag_attributes />
          <ag_computed_attributes />
          <mxCell style="rounded=0;orthogonalLoop=1;jettySize=auto;html=1;strokeWidth=2;strokeColor=#000000;verticalAlign=top;spacingRight=20;" parent="1" source="Uiwz3RxvrwPI8K2oxm7w-45" target="Uiwz3RxvrwPI8K2oxm7w-40" edge="1">
            <mxGeometry relative="1" as="geometry" />
          </mxCell>
        </object>
        <object id="1qkWPqTPLnTGLn8MYxJF-14">
          <ag_attributes />
          <ag_computed_attributes />
          <mxCell style="edgeStyle=none;rounded=0;orthogonalLoop=1;jettySize=auto;html=1;strokeWidth=2;strokeColor=#000000;verticalAlign=top;spacingRight=20;" parent="1" source="Uiwz3RxvrwPI8K2oxm7w-45" target="1qkWPqTPLnTGLn8MYxJF-5" edge="1">
            <mxGeometry relative="1" as="geometry" />
          </mxCell>
        </object>
        <object label="Geschwindigkeitsprofil manipulieren" id="Uiwz3RxvrwPI8K2oxm7w-45">
          <ag_attributes label="Spoofing der digitalen Zugschlussscheibe" Resources="4" Knowledge="4" Location="1" _marking="1qkWPqTPLnTGLn8MYxJF-5" />
          <ag_computed_attributes fillColor="#40ff00" fontColor="#000000" value="1" />
          <ag_computed_attributes_function_reference ag_computed_attributes_function_reference="dbg60ff69g9a" />
          <ag_aggregation_function_reference ag_aggregation_function_reference="6b1d22791hih8" />
          <mxCell style="verticalAlign=top;align=center;fillColor=#FFFFFF;gradientColor=none;labelBackgroundColor=none;rounded=0;whiteSpace=wrap;shape=attackgraphs.node;spacingRight=20;" parent="1" vertex="1">
            <mxGeometry x="2275" y="480" width="180" height="60" as="geometry" />
          </mxCell>
        </object>
        <object id="Uiwz3RxvrwPI8K2oxm7w-69">
          <ag_attributes />
          <ag_computed_attributes />
          <mxCell style="edgeStyle=none;rounded=0;orthogonalLoop=1;jettySize=auto;html=1;strokeWidth=2;strokeColor=#000000;verticalAlign=top;spacingRight=20;" parent="1" source="Uiwz3RxvrwPI8K2oxm7w-46" target="Uiwz3RxvrwPI8K2oxm7w-37" edge="1">
            <mxGeometry relative="1" as="geometry" />
          </mxCell>
        </object>
        <object id="Uiwz3RxvrwPI8K2oxm7w-71">
          <ag_attributes />
          <ag_computed_attributes />
          <mxCell style="edgeStyle=none;rounded=0;orthogonalLoop=1;jettySize=auto;html=1;strokeWidth=2;strokeColor=#000000;verticalAlign=top;spacingRight=20;" parent="1" source="Uiwz3RxvrwPI8K2oxm7w-46" target="Uiwz3RxvrwPI8K2oxm7w-42" edge="1">
            <mxGeometry relative="1" as="geometry" />
          </mxCell>
        </object>
        <object id="Y63ZTUztEMgZLybOCHic-4">
          <ag_attributes />
          <ag_computed_attributes />
          <mxCell style="edgeStyle=none;rounded=0;orthogonalLoop=1;jettySize=auto;html=1;strokeWidth=2;strokeColor=#000000;verticalAlign=top;spacingRight=20;" parent="1" source="Uiwz3RxvrwPI8K2oxm7w-46" target="Uiwz3RxvrwPI8K2oxm7w-40" edge="1">
            <mxGeometry relative="1" as="geometry" />
          </mxCell>
        </object>
        <object id="1qkWPqTPLnTGLn8MYxJF-13">
          <ag_attributes />
          <ag_computed_attributes />
          <mxCell style="edgeStyle=none;rounded=0;orthogonalLoop=1;jettySize=auto;html=1;strokeWidth=2;strokeColor=#000000;verticalAlign=top;spacingRight=20;" parent="1" source="Uiwz3RxvrwPI8K2oxm7w-46" target="1qkWPqTPLnTGLn8MYxJF-5" edge="1">
            <mxGeometry relative="1" as="geometry" />
          </mxCell>
        </object>
        <object label="Fahrempfehlungen manipulieren" id="Uiwz3RxvrwPI8K2oxm7w-46">
          <ag_attributes label="Spoofing der digitalen Zugschlussscheibe" Resources="4" Knowledge="4" Location="1" _marking="1qkWPqTPLnTGLn8MYxJF-5" />
          <ag_computed_attributes fillColor="#40ff00" fontColor="#000000" value="1" />
          <ag_computed_attributes_function_reference ag_computed_attributes_function_reference="dbg60ff69g9a" />
          <ag_aggregation_function_reference ag_aggregation_function_reference="6b1d22791hih8" />
          <mxCell style="verticalAlign=top;align=center;fillColor=#FFFFFF;gradientColor=none;labelBackgroundColor=none;rounded=0;whiteSpace=wrap;shape=attackgraphs.node;spacingRight=20;" parent="1" vertex="1">
            <mxGeometry x="1980" y="480" width="180" height="60" as="geometry" />
          </mxCell>
        </object>
        <object id="Uiwz3RxvrwPI8K2oxm7w-68">
          <ag_attributes />
          <ag_computed_attributes />
          <mxCell style="edgeStyle=none;rounded=0;orthogonalLoop=1;jettySize=auto;html=1;strokeWidth=2;strokeColor=#000000;verticalAlign=top;spacingRight=20;" parent="1" source="Uiwz3RxvrwPI8K2oxm7w-47" target="Uiwz3RxvrwPI8K2oxm7w-41" edge="1">
            <mxGeometry relative="1" as="geometry" />
          </mxCell>
        </object>
        <object label="Kommunikation mit Stellwerk unterbinden" id="Uiwz3RxvrwPI8K2oxm7w-47">
          <ag_attributes label="NaN" Resources="4" Knowledge="5" Location="1" _marking="Uiwz3RxvrwPI8K2oxm7w-41" />
          <ag_computed_attributes fillColor="#40ff00" fontColor="#000000" value="1" />
          <ag_computed_attributes_function_reference ag_computed_attributes_function_reference="dbg60ff69g9a" />
          <ag_aggregation_function_reference ag_aggregation_function_reference="6b1d22791hih8" />
          <mxCell style="verticalAlign=top;align=center;fillColor=#FFFFFF;gradientColor=none;labelBackgroundColor=none;rounded=0;whiteSpace=wrap;shape=attackgraphs.node;spacingRight=20;" parent="1" vertex="1">
            <mxGeometry x="950" y="480" width="180" height="60" as="geometry" />
          </mxCell>
        </object>
        <object id="Uiwz3RxvrwPI8K2oxm7w-67">
          <ag_attributes />
          <ag_computed_attributes />
          <mxCell style="edgeStyle=none;rounded=0;orthogonalLoop=1;jettySize=auto;html=1;strokeWidth=2;strokeColor=#000000;verticalAlign=top;spacingRight=20;" parent="1" source="Uiwz3RxvrwPI8K2oxm7w-48" target="Uiwz3RxvrwPI8K2oxm7w-41" edge="1">
            <mxGeometry relative="1" as="geometry" />
          </mxCell>
        </object>
        <object label="Kommunikation mit Disposition unterbinden" id="Uiwz3RxvrwPI8K2oxm7w-48">
          <ag_attributes label="NaN" Resources="4" Knowledge="5" Location="1" _marking="Uiwz3RxvrwPI8K2oxm7w-41" />
          <ag_computed_attributes fillColor="#40ff00" fontColor="#000000" value="1" />
          <ag_computed_attributes_function_reference ag_computed_attributes_function_reference="dbg60ff69g9a" />
          <ag_aggregation_function_reference ag_aggregation_function_reference="6b1d22791hih8" />
          <mxCell style="verticalAlign=top;align=center;fillColor=#FFFFFF;gradientColor=none;labelBackgroundColor=none;rounded=0;whiteSpace=wrap;shape=attackgraphs.node;spacingRight=20;" parent="1" vertex="1">
            <mxGeometry x="1245" y="480" width="180" height="60" as="geometry" />
          </mxCell>
        </object>
        <object id="Ix9G6hSQ4KYSyDZbYxxm-6">
          <ag_attributes />
          <ag_computed_attributes />
          <mxCell style="edgeStyle=none;rounded=0;orthogonalLoop=1;jettySize=auto;html=1;entryX=0.5;entryY=0;entryDx=0;entryDy=0;strokeWidth=2;startArrow=diamondThin;startFill=1;endArrow=none;endFill=0;strokeColor=#000000;" parent="1" source="1qkWPqTPLnTGLn8MYxJF-1" target="Ix9G6hSQ4KYSyDZbYxxm-4" edge="1">
            <mxGeometry relative="1" as="geometry" />
          </mxCell>
        </object>
        <object label="FRMCS Jamming" Resources="2" Knowledge="2" Location="1" id="1qkWPqTPLnTGLn8MYxJF-1">
          <labelValue labelValue="" />
          <ag_attributes label="NaN" Resources="4" Knowledge="5" Location="1" />
          <ag_computed_attributes fillColor="#40ff00" fontColor="#000000" value="1" />
          <ag_computed_attributes_function_reference ag_computed_attributes_function_reference="dbg60ff69g9a" />
          <ag_aggregation_function_reference ag_aggregation_function_reference="73f575i0ghij5" />
          <mxCell style="shape=attackgraphs.node;fillColor=#FEE599;verticalAlign=top;spacingRight=20;" parent="1" vertex="1">
            <mxGeometry x="320" y="830" width="150" height="75" as="geometry" />
          </mxCell>
        </object>
        <object id="Ix9G6hSQ4KYSyDZbYxxm-3">
          <ag_attributes />
          <ag_computed_attributes />
          <mxCell style="edgeStyle=none;rounded=0;orthogonalLoop=1;jettySize=auto;html=1;entryX=0.5;entryY=0;entryDx=0;entryDy=0;startArrow=diamondThin;startFill=1;endArrow=none;endFill=0;strokeWidth=2;strokeColor=#000000;" parent="1" source="1qkWPqTPLnTGLn8MYxJF-2" target="Ix9G6hSQ4KYSyDZbYxxm-2" edge="1">
            <mxGeometry relative="1" as="geometry">
              <mxPoint x="550" y="986" as="sourcePoint" />
            </mxGeometry>
          </mxCell>
        </object>
        <object id="Ix9G6hSQ4KYSyDZbYxxm-28">
          <ag_attributes />
          <ag_computed_attributes />
          <mxCell style="edgeStyle=none;rounded=0;orthogonalLoop=1;jettySize=auto;html=1;strokeWidth=2;startArrow=diamondThin;startFill=1;endArrow=none;endFill=0;strokeColor=#000000;" parent="1" source="1qkWPqTPLnTGLn8MYxJF-2" target="Ix9G6hSQ4KYSyDZbYxxm-24" edge="1">
            <mxGeometry relative="1" as="geometry" />
          </mxCell>
        </object>
        <object label="Hardware zerstören" Resources="1" Knowledge="1" Location="1" id="1qkWPqTPLnTGLn8MYxJF-2">
          <labelValue labelValue="" />
          <ag_attributes label="NaN" Resources="5" Knowledge="3" Location="1" />
          <ag_computed_attributes fillColor="#40ff00" fontColor="#000000" value="1" />
          <ag_computed_attributes_function_reference ag_computed_attributes_function_reference="dbg60ff69g9a" />
          <ag_aggregation_function_reference ag_aggregation_function_reference="73f575i0ghij5" />
          <ag_enabled ag_enabled="1" />
          <mxCell style="shape=attackgraphs.node;fillColor=#D7E3BF;verticalAlign=top;spacingRight=20;" parent="1" vertex="1">
            <mxGeometry x="490" y="830" width="160" height="76" as="geometry" />
          </mxCell>
        </object>
        <object id="1qkWPqTPLnTGLn8MYxJF-9">
          <ag_attributes />
          <ag_computed_attributes />
          <mxCell style="edgeStyle=none;rounded=0;orthogonalLoop=1;jettySize=auto;html=1;strokeWidth=2;strokeColor=#000000;verticalAlign=top;spacingRight=20;" parent="1" source="1qkWPqTPLnTGLn8MYxJF-5" target="1qkWPqTPLnTGLn8MYxJF-6" edge="1">
            <mxGeometry relative="1" as="geometry" />
          </mxCell>
        </object>
        <object id="1qkWPqTPLnTGLn8MYxJF-10">
          <ag_attributes />
          <ag_computed_attributes />
          <mxCell style="edgeStyle=none;rounded=0;orthogonalLoop=1;jettySize=auto;html=1;strokeWidth=2;strokeColor=#000000;verticalAlign=top;spacingRight=20;" parent="1" source="1qkWPqTPLnTGLn8MYxJF-5" target="1qkWPqTPLnTGLn8MYxJF-7" edge="1">
            <mxGeometry relative="1" as="geometry" />
          </mxCell>
        </object>
        <object id="1qkWPqTPLnTGLn8MYxJF-11">
          <ag_attributes />
          <ag_computed_attributes />
          <mxCell style="edgeStyle=none;rounded=0;orthogonalLoop=1;jettySize=auto;html=1;strokeWidth=2;strokeColor=#000000;verticalAlign=top;spacingRight=20;" parent="1" source="1qkWPqTPLnTGLn8MYxJF-5" target="1qkWPqTPLnTGLn8MYxJF-8" edge="1">
            <mxGeometry relative="1" as="geometry" />
          </mxCell>
        </object>
        <object id="1qkWPqTPLnTGLn8MYxJF-48">
          <ag_attributes />
          <ag_computed_attributes />
          <mxCell style="edgeStyle=none;rounded=0;orthogonalLoop=1;jettySize=auto;html=1;strokeWidth=2;strokeColor=#000000;verticalAlign=top;spacingRight=20;" parent="1" source="1qkWPqTPLnTGLn8MYxJF-5" target="1qkWPqTPLnTGLn8MYxJF-46" edge="1">
            <mxGeometry relative="1" as="geometry" />
          </mxCell>
        </object>
        <object label="Infrastrukturüberwachung täuschen" id="1qkWPqTPLnTGLn8MYxJF-5">
          <ag_attributes label="Spoofing der digitalen Zugschlussscheibe" Resources="4" Knowledge="4" Location="1" _marking="1qkWPqTPLnTGLn8MYxJF-46" />
          <ag_computed_attributes fillColor="#40ff00" fontColor="#000000" value="1" />
          <ag_aggregation_function_reference ag_aggregation_function_reference="6b1d22791hih8" />
          <ag_computed_attributes_function_reference ag_computed_attributes_function_reference="dbg60ff69g9a" />
          <mxCell style="verticalAlign=top;align=center;fillColor=#FFFFFF;gradientColor=none;labelBackgroundColor=none;rounded=0;whiteSpace=wrap;shape=attackgraphs.node;spacingRight=20;" parent="1" vertex="1">
            <mxGeometry x="2100" y="680" width="180" height="60" as="geometry" />
          </mxCell>
        </object>
        <object id="Ix9G6hSQ4KYSyDZbYxxm-23">
          <ag_attributes />
          <ag_computed_attributes />
          <mxCell style="edgeStyle=none;rounded=0;orthogonalLoop=1;jettySize=auto;html=1;strokeWidth=2;startArrow=diamondThin;startFill=1;endArrow=none;endFill=0;strokeColor=#000000;" parent="1" source="1qkWPqTPLnTGLn8MYxJF-6" target="Ix9G6hSQ4KYSyDZbYxxm-18" edge="1">
            <mxGeometry relative="1" as="geometry" />
          </mxCell>
        </object>
        <object id="Ix9G6hSQ4KYSyDZbYxxm-46">
          <ag_attributes />
          <ag_computed_attributes />
          <mxCell style="edgeStyle=none;rounded=0;orthogonalLoop=1;jettySize=auto;html=1;entryX=0.5;entryY=0;entryDx=0;entryDy=0;strokeWidth=2;startArrow=diamondThin;startFill=1;endArrow=none;endFill=0;strokeColor=#000000;" parent="1" source="1qkWPqTPLnTGLn8MYxJF-6" target="Ix9G6hSQ4KYSyDZbYxxm-24" edge="1">
            <mxGeometry relative="1" as="geometry" />
          </mxCell>
        </object>
        <object label="Fehler in Sicherer Hardware ausnutzen" Resources="4" Knowledge="4" Location="0" id="1qkWPqTPLnTGLn8MYxJF-6">
          <labelValue labelValue="" />
          <ag_attributes label="NaN" Resources="5" Knowledge="5" Location="1" />
          <ag_computed_attributes fillColor="#40ff00" fontColor="#000000" value="1" />
          <ag_computed_attributes_function_reference ag_computed_attributes_function_reference="dbg60ff69g9a" />
          <ag_aggregation_function_reference ag_aggregation_function_reference="73f575i0ghij5" />
          <mxCell style="shape=attackgraphs.node;fillColor=#D7E3BF;whiteSpace=wrap;verticalAlign=top;spacingRight=20;" parent="1" vertex="1">
            <mxGeometry x="2030" y="830" width="150" height="75" as="geometry" />
          </mxCell>
        </object>
        <object id="Ix9G6hSQ4KYSyDZbYxxm-20">
          <ag_attributes />
          <ag_computed_attributes />
          <mxCell style="edgeStyle=none;rounded=0;orthogonalLoop=1;jettySize=auto;html=1;strokeWidth=2;startArrow=diamondThin;startFill=1;endArrow=none;endFill=0;strokeColor=#000000;" parent="1" source="1qkWPqTPLnTGLn8MYxJF-7" target="Ix9G6hSQ4KYSyDZbYxxm-18" edge="1">
            <mxGeometry relative="1" as="geometry" />
          </mxCell>
        </object>
        <object id="Ix9G6hSQ4KYSyDZbYxxm-26">
          <ag_attributes />
          <ag_computed_attributes />
          <mxCell style="edgeStyle=none;rounded=0;orthogonalLoop=1;jettySize=auto;html=1;strokeWidth=2;startArrow=diamondThin;startFill=1;endArrow=none;endFill=0;strokeColor=#000000;" parent="1" source="1qkWPqTPLnTGLn8MYxJF-7" target="Ix9G6hSQ4KYSyDZbYxxm-24" edge="1">
            <mxGeometry relative="1" as="geometry" />
          </mxCell>
        </object>
        <object label="Kompromittierte Sichere Hardware einschleusen" Resources="3" Knowledge="3" Location="1" id="1qkWPqTPLnTGLn8MYxJF-7">
          <labelValue labelValue="" />
          <ag_attributes label="NaN" Resources="5" Knowledge="5" Location="1" />
          <ag_computed_attributes fillColor="#40ff00" fontColor="#000000" value="1" />
          <ag_computed_attributes_function_reference ag_computed_attributes_function_reference="dbg60ff69g9a" />
          <ag_aggregation_function_reference ag_aggregation_function_reference="73f575i0ghij5" />
          <mxCell style="shape=attackgraphs.node;fillColor=#D7E3BF;whiteSpace=wrap;verticalAlign=top;spacingRight=20;" parent="1" vertex="1">
            <mxGeometry x="2200" y="830" width="150" height="75" as="geometry" />
          </mxCell>
        </object>
        <object id="Ix9G6hSQ4KYSyDZbYxxm-12">
          <ag_attributes />
          <ag_computed_attributes />
          <mxCell style="edgeStyle=none;rounded=0;orthogonalLoop=1;jettySize=auto;html=1;strokeWidth=2;startArrow=diamondThin;startFill=1;endArrow=none;endFill=0;strokeColor=#000000;" parent="1" source="1qkWPqTPLnTGLn8MYxJF-8" target="WxrAOenjU9FATPxDFI2T-8" edge="1">
            <mxGeometry relative="1" as="geometry" />
          </mxCell>
        </object>
        <object id="Ix9G6hSQ4KYSyDZbYxxm-21">
          <ag_attributes />
          <ag_computed_attributes />
          <mxCell style="edgeStyle=none;rounded=0;orthogonalLoop=1;jettySize=auto;html=1;strokeWidth=2;startArrow=diamondThin;startFill=1;endArrow=none;endFill=0;strokeColor=#000000;" parent="1" source="1qkWPqTPLnTGLn8MYxJF-8" target="Ix9G6hSQ4KYSyDZbYxxm-18" edge="1">
            <mxGeometry relative="1" as="geometry" />
          </mxCell>
        </object>
        <object id="Ix9G6hSQ4KYSyDZbYxxm-27">
          <ag_attributes />
          <ag_computed_attributes />
          <mxCell style="edgeStyle=none;rounded=0;orthogonalLoop=1;jettySize=auto;html=1;strokeWidth=2;startArrow=diamondThin;startFill=1;endArrow=none;endFill=0;strokeColor=#000000;sourcePortConstraint=none;" parent="1" source="1qkWPqTPLnTGLn8MYxJF-8" target="Ix9G6hSQ4KYSyDZbYxxm-24" edge="1">
            <mxGeometry relative="1" as="geometry" />
          </mxCell>
        </object>
        <object label="Manipulation Feldelement" Resources="3" Knowledge="3" Location="1" id="1qkWPqTPLnTGLn8MYxJF-8">
          <labelValue labelValue="" />
          <ag_attributes label="NaN" Resources="5" Knowledge="5" Location="1" />
          <ag_computed_attributes fillColor="#40ff00" fontColor="#000000" value="1" />
          <ag_computed_attributes_function_reference ag_computed_attributes_function_reference="dbg60ff69g9a" />
          <ag_aggregation_function_reference ag_aggregation_function_reference="73f575i0ghij5" />
          <mxCell style="shape=attackgraphs.node;fillColor=#FEE599;verticalAlign=top;spacingRight=20;whiteSpace=wrap;" parent="1" vertex="1">
            <mxGeometry x="2390" y="830" width="150" height="75" as="geometry" />
          </mxCell>
        </object>
        <object id="WxrAOenjU9FATPxDFI2T-2">
          <ag_attributes />
          <ag_computed_attributes />
          <mxCell style="rounded=0;orthogonalLoop=1;jettySize=auto;html=1;strokeWidth=2;startArrow=diamondThin;startFill=1;endArrow=none;endFill=0;strokeColor=#000000;verticalAlign=top;spacingRight=20;" parent="1" source="1qkWPqTPLnTGLn8MYxJF-15" target="WxrAOenjU9FATPxDFI2T-1" edge="1">
            <mxGeometry relative="1" as="geometry">
              <mxPoint x="720" y="916" as="sourcePoint" />
            </mxGeometry>
          </mxCell>
        </object>
        <object label="Malware einschleusen" Resources="3" Knowledge="3" Location="0" id="1qkWPqTPLnTGLn8MYxJF-15">
          <labelValue labelValue="" />
          <ag_attributes label="NaN" Resources="5" Knowledge="5" Location="0" />
          <ag_computed_attributes fillColor="#40ff00" fontColor="#000000" value="1" />
          <ag_computed_attributes_function_reference ag_computed_attributes_function_reference="dbg60ff69g9a" />
          <ag_aggregation_function_reference ag_aggregation_function_reference="73f575i0ghij5" />
          <mxCell style="shape=attackgraphs.node;fillColor=#D7E3BF;verticalAlign=top;spacingRight=20;" parent="1" vertex="1">
            <mxGeometry x="670" y="830" width="150" height="75" as="geometry" />
          </mxCell>
        </object>
        <object label="Einfügen und Ausnutzen von Backdoors" Resources="2" Knowledge="2" Location="0" id="1qkWPqTPLnTGLn8MYxJF-16">
          <labelValue labelValue="" />
          <ag_attributes label="NaN" Resources="4" Knowledge="5" Location="0" />
          <ag_computed_attributes fillColor="#40ff00" fontColor="#000000" value="1" />
          <ag_computed_attributes_function_reference ag_computed_attributes_function_reference="dbg60ff69g9a" />
          <ag_aggregation_function_reference ag_aggregation_function_reference="73f575i0ghij5" />
          <mxCell style="shape=attackgraphs.node;fillColor=#D7E3BF;whiteSpace=wrap;verticalAlign=top;spacingRight=20;" parent="1" vertex="1">
            <mxGeometry x="852.88" y="830" width="150" height="75" as="geometry" />
          </mxCell>
        </object>
        <object label="Fälschung ortsfester Referenzpunkte" Resources="4" Knowledge="4" Location="1" id="1qkWPqTPLnTGLn8MYxJF-19">
          <labelValue labelValue="" />
          <ag_attributes />
          <ag_computed_attributes fillColor="#40ff00" fontColor="#000000" value="1" />
          <ag_computed_attributes_function_reference ag_computed_attributes_function_reference="dbg60ff69g9a" />
          <mxCell style="shape=attackgraphs.node;fillColor=#D7E3BF;whiteSpace=wrap;verticalAlign=top;spacingRight=20;" parent="1" vertex="1">
            <mxGeometry x="1262.88" y="956" width="150" height="60" as="geometry" />
          </mxCell>
        </object>
        <object id="Ix9G6hSQ4KYSyDZbYxxm-7">
          <ag_attributes />
          <ag_computed_attributes />
          <mxCell style="edgeStyle=none;rounded=0;orthogonalLoop=1;jettySize=auto;html=1;entryX=1;entryY=0.25;entryDx=0;entryDy=0;strokeWidth=2;startArrow=diamondThin;startFill=1;endArrow=none;endFill=0;strokeColor=#000000;" parent="1" source="1qkWPqTPLnTGLn8MYxJF-20" target="Ix9G6hSQ4KYSyDZbYxxm-2" edge="1">
            <mxGeometry relative="1" as="geometry" />
          </mxCell>
        </object>
        <object id="Ix9G6hSQ4KYSyDZbYxxm-41">
          <ag_attributes />
          <ag_computed_attributes />
          <mxCell style="edgeStyle=none;rounded=0;orthogonalLoop=1;jettySize=auto;html=1;strokeWidth=2;startArrow=diamondThin;startFill=1;endArrow=none;endFill=0;strokeColor=#000000;entryX=0.5;entryY=0;entryDx=0;entryDy=0;" parent="1" source="1qkWPqTPLnTGLn8MYxJF-20" target="Ix9G6hSQ4KYSyDZbYxxm-44" edge="1">
            <mxGeometry relative="1" as="geometry">
              <mxPoint x="970" y="1316" as="targetPoint" />
            </mxGeometry>
          </mxCell>
        </object>
        <object label="GNSS Spoofing" Resources="3" Knowledge="3" Location="1" id="1qkWPqTPLnTGLn8MYxJF-20">
          <labelValue labelValue="" />
          <ag_attributes label="NaN" Resources="5" Knowledge="5" Location="1" />
          <ag_computed_attributes fillColor="#40ff00" fontColor="#000000" value="1" />
          <ag_computed_attributes_function_reference ag_computed_attributes_function_reference="dbg60ff69g9a" />
          <ag_aggregation_function_reference ag_aggregation_function_reference="73f575i0ghij5" />
          <mxCell style="shape=attackgraphs.node;fillColor=#FEE599;verticalAlign=top;spacingRight=20;" parent="1" vertex="1">
            <mxGeometry x="900" y="956" width="150" height="60" as="geometry" />
          </mxCell>
        </object>
        <object id="Ix9G6hSQ4KYSyDZbYxxm-29">
          <ag_attributes />
          <ag_computed_attributes />
          <mxCell style="edgeStyle=none;rounded=0;orthogonalLoop=1;jettySize=auto;html=1;strokeWidth=2;startArrow=diamondThin;startFill=1;endArrow=none;endFill=0;strokeColor=#000000;" parent="1" source="1qkWPqTPLnTGLn8MYxJF-21" target="Ix9G6hSQ4KYSyDZbYxxm-24" edge="1">
            <mxGeometry relative="1" as="geometry" />
          </mxCell>
        </object>
        <object label="FOS-Einheit kompromittieren&#xa;(siehe Dezentrales Stellwerk)" Resources="2" Knowledge="1" Location="1" id="1qkWPqTPLnTGLn8MYxJF-21">
          <ag_attributes label="NaN" Resources="5" Knowledge="5" Location="1" />
          <ag_computed_attributes fillColor="#40ff00" fontColor="#000000" value="1" />
          <ag_aggregation_function_reference ag_aggregation_function_reference="73f575i0ghij5" />
          <ag_computed_attributes_function_reference ag_computed_attributes_function_reference="dbg60ff69g9a" />
          <mxCell style="verticalAlign=top;align=center;gradientColor=none;labelBackgroundColor=none;rounded=0;whiteSpace=wrap;shape=attackgraphs.node;fillColor=#FEE599;spacingRight=20;" parent="1" vertex="1">
            <mxGeometry x="1070" y="956" width="185" height="60" as="geometry" />
          </mxCell>
        </object>
        <object id="1qkWPqTPLnTGLn8MYxJF-24">
          <ag_attributes />
          <ag_computed_attributes />
          <mxCell style="edgeStyle=none;rounded=0;orthogonalLoop=1;jettySize=auto;html=1;strokeWidth=2;strokeColor=#000000;exitX=0;exitY=0.25;exitDx=0;exitDy=0;exitPerimeter=0;verticalAlign=top;spacingRight=20;" parent="1" source="1qkWPqTPLnTGLn8MYxJF-22" target="1qkWPqTPLnTGLn8MYxJF-20" edge="1">
            <mxGeometry relative="1" as="geometry" />
          </mxCell>
        </object>
        <object id="1qkWPqTPLnTGLn8MYxJF-25">
          <ag_attributes />
          <ag_computed_attributes />
          <mxCell style="edgeStyle=none;rounded=0;orthogonalLoop=1;jettySize=auto;html=1;strokeWidth=2;strokeColor=#000000;exitX=0;exitY=0.75;exitDx=0;exitDy=0;exitPerimeter=0;verticalAlign=top;spacingRight=20;" parent="1" source="1qkWPqTPLnTGLn8MYxJF-22" target="1qkWPqTPLnTGLn8MYxJF-21" edge="1">
            <mxGeometry relative="1" as="geometry" />
          </mxCell>
        </object>
        <labelValue id="1qkWPqTPLnTGLn8MYxJF-22">
          <labelValue labelValue="" />
          <ag_attributes label="NaN" Resources="5" Knowledge="5" Location="1" _marking="1qkWPqTPLnTGLn8MYxJF-20;1qkWPqTPLnTGLn8MYxJF-21" />
          <ag_computed_attributes />
          <ag_aggregation_function_reference ag_aggregation_function_reference="gf0d4f199018" />
          <mxCell style="shape=or;whiteSpace=wrap;html=1;rotation=-90;verticalAlign=top;spacingRight=20;" parent="1" vertex="1">
            <mxGeometry x="1020" y="866" width="30" height="40" as="geometry" />
          </mxCell>
        </labelValue>
        <object id="1qkWPqTPLnTGLn8MYxJF-40">
          <ag_attributes />
          <ag_computed_attributes />
          <mxCell style="edgeStyle=none;rounded=0;orthogonalLoop=1;jettySize=auto;html=1;strokeWidth=2;strokeColor=#000000;verticalAlign=top;spacingRight=20;" parent="1" source="1qkWPqTPLnTGLn8MYxJF-36" target="1qkWPqTPLnTGLn8MYxJF-38" edge="1">
            <mxGeometry relative="1" as="geometry" />
          </mxCell>
        </object>
        <object id="1qkWPqTPLnTGLn8MYxJF-41">
          <ag_attributes />
          <ag_computed_attributes />
          <mxCell style="edgeStyle=none;rounded=0;orthogonalLoop=1;jettySize=auto;html=1;strokeWidth=2;strokeColor=#000000;verticalAlign=top;spacingRight=20;" parent="1" source="1qkWPqTPLnTGLn8MYxJF-36" target="1qkWPqTPLnTGLn8MYxJF-37" edge="1">
            <mxGeometry relative="1" as="geometry" />
          </mxCell>
        </object>
        <object label="Fahrwegeigenschaften verändern oder Gefahrpunkte löschen" id="1qkWPqTPLnTGLn8MYxJF-36">
          <ag_attributes label="NaN" Resources="5" Knowledge="5" Location="0" _marking="1qkWPqTPLnTGLn8MYxJF-38" />
          <ag_computed_attributes fillColor="#40ff00" fontColor="#000000" value="1" />
          <ag_computed_attributes_function_reference ag_computed_attributes_function_reference="dbg60ff69g9a" />
          <ag_aggregation_function_reference ag_aggregation_function_reference="6b1d22791hih8" />
          <mxCell style="verticalAlign=top;align=center;fillColor=#FFFFFF;gradientColor=none;labelBackgroundColor=none;rounded=0;whiteSpace=wrap;shape=attackgraphs.node;spacingRight=20;" parent="1" vertex="1">
            <mxGeometry x="2927" y="830" width="150" height="75" as="geometry" />
          </mxCell>
        </object>
        <object id="WxrAOenjU9FATPxDFI2T-10">
          <ag_attributes />
          <ag_computed_attributes />
          <mxCell style="edgeStyle=none;rounded=0;orthogonalLoop=1;jettySize=auto;html=1;strokeWidth=2;startArrow=diamondThin;startFill=1;endArrow=none;endFill=0;strokeColor=#000000;" parent="1" source="1qkWPqTPLnTGLn8MYxJF-37" target="WxrAOenjU9FATPxDFI2T-8" edge="1">
            <mxGeometry relative="1" as="geometry">
              <mxPoint x="3037" y="1046" as="sourcePoint" />
            </mxGeometry>
          </mxCell>
        </object>
        <object label="Datenspeicher modifizieren" Resources="3" Knowledge="3" Location="0" id="1qkWPqTPLnTGLn8MYxJF-37">
          <labelValue labelValue="" />
          <ag_attributes label="NaN" Resources="5" Knowledge="5" Location="0" />
          <ag_computed_attributes fillColor="#40ff00" fontColor="#000000" value="1" />
          <ag_computed_attributes_function_reference ag_computed_attributes_function_reference="dbg60ff69g9a" />
          <ag_aggregation_function_reference ag_aggregation_function_reference="73f575i0ghij5" />
          <mxCell style="shape=attackgraphs.node;fillColor=#D7E3BF;whiteSpace=wrap;verticalAlign=top;spacingRight=20;" parent="1" vertex="1">
            <mxGeometry x="2990" y="966" width="140" height="60" as="geometry" />
          </mxCell>
        </object>
        <object id="WxrAOenjU9FATPxDFI2T-9">
          <ag_attributes />
          <ag_computed_attributes />
          <mxCell style="edgeStyle=none;rounded=0;orthogonalLoop=1;jettySize=auto;html=1;strokeWidth=2;startArrow=diamondThin;startFill=1;endArrow=none;endFill=0;strokeColor=#000000;" parent="1" source="1qkWPqTPLnTGLn8MYxJF-38" target="WxrAOenjU9FATPxDFI2T-8" edge="1">
            <mxGeometry relative="1" as="geometry">
              <mxPoint x="2937" y="1056" as="sourcePoint" />
            </mxGeometry>
          </mxCell>
        </object>
        <object label="Falsches Update einspielen" Resources="3" Knowledge="3" Location="0" id="1qkWPqTPLnTGLn8MYxJF-38">
          <labelValue labelValue="" />
          <ag_attributes label="NaN" Resources="5" Knowledge="5" Location="0" />
          <ag_computed_attributes fillColor="#40ff00" fontColor="#000000" value="1" />
          <ag_computed_attributes_function_reference ag_computed_attributes_function_reference="dbg60ff69g9a" />
          <ag_aggregation_function_reference ag_aggregation_function_reference="73f575i0ghij5" />
          <mxCell style="shape=attackgraphs.node;fillColor=#D7E3BF;whiteSpace=wrap;verticalAlign=top;spacingRight=20;" parent="1" vertex="1">
            <mxGeometry x="2830" y="966" width="140" height="60" as="geometry" />
          </mxCell>
        </object>
        <object label="Man-in-the-Middle Angriff" Resources="2" Knowledge="3" Location="0" id="1qkWPqTPLnTGLn8MYxJF-42">
          <labelValue labelValue="" />
          <ag_attributes label="NaN" Resources="4" Knowledge="5" Location="0" />
          <ag_computed_attributes fillColor="#40ff00" fontColor="#000000" value="1" />
          <ag_computed_attributes_function_reference ag_computed_attributes_function_reference="dbg60ff69g9a" />
          <ag_aggregation_function_reference ag_aggregation_function_reference="73f575i0ghij5" />
          <mxCell style="shape=attackgraphs.node;fillColor=#D7E3BF;whiteSpace=wrap;verticalAlign=top;spacingRight=20;" parent="1" vertex="1">
            <mxGeometry x="2580" y="830" width="150" height="75" as="geometry" />
          </mxCell>
        </object>
        <object id="Ix9G6hSQ4KYSyDZbYxxm-10">
          <ag_attributes />
          <ag_computed_attributes />
          <mxCell style="edgeStyle=none;rounded=0;orthogonalLoop=1;jettySize=auto;html=1;strokeWidth=2;startArrow=diamondThin;startFill=1;endArrow=none;endFill=0;strokeColor=#000000;" parent="1" source="1qkWPqTPLnTGLn8MYxJF-42" target="WxrAOenjU9FATPxDFI2T-8" edge="1">
            <mxGeometry relative="1" as="geometry" />
          </mxCell>
        </object>
        <object id="Ix9G6hSQ4KYSyDZbYxxm-17">
          <ag_attributes />
          <ag_computed_attributes />
          <mxCell style="edgeStyle=none;rounded=0;orthogonalLoop=1;jettySize=auto;html=1;entryX=0.5;entryY=0;entryDx=0;entryDy=0;strokeWidth=2;startArrow=diamondThin;startFill=1;endArrow=none;endFill=0;strokeColor=#000000;" parent="1" source="1qkWPqTPLnTGLn8MYxJF-43" target="Ix9G6hSQ4KYSyDZbYxxm-13" edge="1">
            <mxGeometry relative="1" as="geometry" />
          </mxCell>
        </object>
        <object label="Replay-Angriff" Resources="2" Knowledge="3" Location="1" id="1qkWPqTPLnTGLn8MYxJF-43">
          <labelValue labelValue="" />
          <ag_attributes label="NaN" Resources="4" Knowledge="5" Location="1" />
          <ag_computed_attributes fillColor="#40ff00" fontColor="#000000" value="1" />
          <ag_computed_attributes_function_reference ag_computed_attributes_function_reference="dbg60ff69g9a" />
          <ag_aggregation_function_reference ag_aggregation_function_reference="73f575i0ghij5" />
          <ag_enabled ag_enabled="1" />
          <mxCell style="shape=attackgraphs.node;fillColor=#FEE599;verticalAlign=top;spacingRight=20;" parent="1" vertex="1">
            <mxGeometry x="2738" y="830" width="150" height="76" as="geometry" />
          </mxCell>
        </object>
        <object label="Spoofing der digitalen Zugschlussscheibe" Resources="4" Knowledge="4" Location="1" id="1qkWPqTPLnTGLn8MYxJF-46">
          <labelValue labelValue="" />
          <ag_attributes />
          <ag_computed_attributes fillColor="#40ff00" fontColor="#000000" value="1" />
          <ag_computed_attributes_function_reference ag_computed_attributes_function_reference="dbg60ff69g9a" />
          <mxCell style="shape=attackgraphs.node;fillColor=#D7E3BF;whiteSpace=wrap;verticalAlign=top;spacingRight=20;" parent="1" vertex="1">
            <mxGeometry x="1860" y="830" width="150" height="75" as="geometry" />
          </mxCell>
        </object>
        <object label="Manipulation des Datenbestandes (siehe Intermodale Reisekette)" Resources="5" Knowledge="5" Location="0" id="1qkWPqTPLnTGLn8MYxJF-52">
          <labelValue labelValue="" />
          <ag_attributes />
          <ag_computed_attributes fillColor="#40ff00" fontColor="#000000" value="1" />
          <ag_computed_attributes_function_reference ag_computed_attributes_function_reference="dbg60ff69g9a" />
          <mxCell style="shape=attackgraphs.node;fillColor=#FEE599;whiteSpace=wrap;verticalAlign=top;spacingRight=20;" parent="1" vertex="1">
            <mxGeometry x="1160" y="830" width="160" height="75" as="geometry" />
          </mxCell>
        </object>
        <object id="Ix9G6hSQ4KYSyDZbYxxm-9">
          <ag_attributes />
          <ag_computed_attributes />
          <mxCell style="edgeStyle=none;rounded=0;orthogonalLoop=1;jettySize=auto;html=1;entryX=0.5;entryY=0;entryDx=0;entryDy=0;strokeWidth=2;startArrow=diamondThin;startFill=1;endArrow=none;endFill=0;strokeColor=#000000;" parent="1" source="1qkWPqTPLnTGLn8MYxJF-54" target="Ix9G6hSQ4KYSyDZbYxxm-8" edge="1">
            <mxGeometry relative="1" as="geometry" />
          </mxCell>
        </object>
        <object label="Unbewusste Manipulation (siehe Intermodale Reisekette)" Resources="2" Knowledge="2" Location="1" id="1qkWPqTPLnTGLn8MYxJF-54">
          <labelValue labelValue="" />
          <ag_attributes label="NaN" Resources="5" Knowledge="5" Location="1" />
          <ag_computed_attributes fillColor="#40ff00" fontColor="#000000" value="1" />
          <ag_computed_attributes_function_reference ag_computed_attributes_function_reference="dbg60ff69g9a" />
          <ag_aggregation_function_reference ag_aggregation_function_reference="73f575i0ghij5" />
          <mxCell style="shape=attackgraphs.node;fillColor=#FEE599;whiteSpace=wrap;verticalAlign=top;spacingRight=20;" parent="1" vertex="1">
            <mxGeometry x="1340" y="830" width="160" height="75" as="geometry" />
          </mxCell>
        </object>
        <object label="Manipulation der Testfälle (siehe Intermodale Reisekette)" Resources="5" Knowledge="5" Location="0" id="1qkWPqTPLnTGLn8MYxJF-55">
          <labelValue labelValue="" />
          <ag_attributes />
          <ag_computed_attributes fillColor="#40ff00" fontColor="#000000" value="1" />
          <ag_computed_attributes_function_reference ag_computed_attributes_function_reference="dbg60ff69g9a" />
          <mxCell style="shape=attackgraphs.node;fillColor=#FEE599;whiteSpace=wrap;verticalAlign=top;spacingRight=20;" parent="1" vertex="1">
            <mxGeometry x="1520" y="830" width="160" height="75" as="geometry" />
          </mxCell>
        </object>
        <object id="Ix9G6hSQ4KYSyDZbYxxm-22">
          <ag_attributes />
          <ag_computed_attributes />
          <mxCell style="edgeStyle=none;rounded=0;orthogonalLoop=1;jettySize=auto;html=1;strokeWidth=2;startArrow=diamondThin;startFill=1;endArrow=none;endFill=0;strokeColor=#000000;" parent="1" source="1qkWPqTPLnTGLn8MYxJF-58" target="WxrAOenjU9FATPxDFI2T-8" edge="1">
            <mxGeometry relative="1" as="geometry">
              <mxPoint x="1840" y="926" as="sourcePoint" />
            </mxGeometry>
          </mxCell>
        </object>
        <object label="KI-Modell durch manipuliertes austauschen" Resources="4" Knowledge="4" Location="0" id="1qkWPqTPLnTGLn8MYxJF-58">
          <ag_attributes label="NaN" Resources="5" Knowledge="5" Location="0" />
          <ag_computed_attributes fillColor="#40ff00" fontColor="#000000" value="1" />
          <ag_computed_attributes_function_reference ag_computed_attributes_function_reference="dbg60ff69g9a" />
          <ag_aggregation_function_reference ag_aggregation_function_reference="73f575i0ghij5" />
          <mxCell style=";whiteSpace=wrap;fillColor=#d7e3bf;fontFamily=Helvetica;fontSize=12;fontColor=rgba(0, 0, 0, 1);align=center;verticalAlign=top;strokeColor=rgba(0, 0, 0, 1);shape=attackgraphs.node;spacingRight=20;perimeter=rectanglePerimeter;" parent="1" vertex="1">
            <mxGeometry x="1690" y="830" width="150" height="75" as="geometry" />
          </mxCell>
        </object>
        <object label="Kommunikation stören" id="Uiwz3RxvrwPI8K2oxm7w-41">
          <ag_attributes label="NaN" Resources="4" Knowledge="5" Location="1" _marking="1qkWPqTPLnTGLn8MYxJF-1" />
          <ag_computed_attributes fillColor="#40ff00" fontColor="#000000" value="1" />
          <ag_aggregation_function_reference ag_aggregation_function_reference="6b1d22791hih8" />
          <ag_computed_attributes_function_reference ag_computed_attributes_function_reference="dbg60ff69g9a" />
          <mxCell style="verticalAlign=top;align=center;fillColor=#FFFFFF;gradientColor=none;labelBackgroundColor=none;rounded=0;whiteSpace=wrap;shape=attackgraphs.node;spacingRight=20;" parent="1" vertex="1">
            <mxGeometry x="520" y="680" width="180" height="60" as="geometry" />
          </mxCell>
        </object>
        <object label="Lokalisierung manipulieren" id="Uiwz3RxvrwPI8K2oxm7w-43">
          <ag_attributes label="Fälschung ortsfester Referenzpunkte" Resources="4" Knowledge="4" Location="1" _marking="1qkWPqTPLnTGLn8MYxJF-19" />
          <ag_computed_attributes fillColor="#40ff00" fontColor="#000000" value="1" />
          <ag_computed_attributes_function_reference ag_computed_attributes_function_reference="dbg60ff69g9a" />
          <ag_aggregation_function_reference ag_aggregation_function_reference="6b1d22791hih8" />
          <mxCell style="verticalAlign=top;align=center;fillColor=#FFFFFF;gradientColor=none;labelBackgroundColor=none;rounded=0;whiteSpace=wrap;shape=attackgraphs.node;spacingRight=20;" parent="1" vertex="1">
            <mxGeometry x="1082.88" y="680" width="180" height="60" as="geometry" />
          </mxCell>
        </object>
        <object label="KI manipulieren" id="Uiwz3RxvrwPI8K2oxm7w-37">
          <ag_attributes label="Manipulation des Datenbestandes (siehe Intermodale Reisekette)" Resources="5" Knowledge="5" Location="0" _marking="1qkWPqTPLnTGLn8MYxJF-52" />
          <ag_computed_attributes fillColor="#40ff00" fontColor="#000000" value="1" />
          <ag_aggregation_function_reference ag_aggregation_function_reference="6b1d22791hih8" />
          <ag_computed_attributes_function_reference ag_computed_attributes_function_reference="dbg60ff69g9a" />
          <mxCell style="verticalAlign=top;align=center;fillColor=#FFFFFF;gradientColor=none;labelBackgroundColor=none;rounded=0;whiteSpace=wrap;shape=attackgraphs.node;spacingRight=20;" parent="1" vertex="1">
            <mxGeometry x="1460" y="680" width="180" height="60" as="geometry" />
          </mxCell>
        </object>
        <object label="Code Signing&#xa;Schutz vor Schadcode&#xa;Systemhärtung&#xa;Zugriffsschutz&#xa;Source Code Audit" Resources="2" Knowledge="3" Location="0" id="WxrAOenjU9FATPxDFI2T-1">
          <ag_attributes />
          <ag_computed_attributes />
          <mxCell style="shape=attackgraphs.node;fillColor=#DAE8FC;verticalAlign=top;align=left;spacingRight=20;" parent="1" vertex="1">
            <mxGeometry x="700" y="1196" width="200" height="110" as="geometry" />
          </mxCell>
        </object>
        <object id="WxrAOenjU9FATPxDFI2T-4">
          <ag_attributes />
          <ag_computed_attributes />
          <mxCell style="rounded=0;orthogonalLoop=1;jettySize=auto;html=1;strokeWidth=2;startArrow=diamondThin;startFill=1;endArrow=none;endFill=0;strokeColor=#000000;verticalAlign=top;spacingRight=20;" parent="1" source="1qkWPqTPLnTGLn8MYxJF-16" target="WxrAOenjU9FATPxDFI2T-1" edge="1">
            <mxGeometry relative="1" as="geometry">
              <mxPoint x="810" y="926" as="sourcePoint" />
              <mxPoint x="706.875" y="976" as="targetPoint" />
            </mxGeometry>
          </mxCell>
        </object>
        <object label="Digitale Signatur&#xa;Sicherer Datenspeicher&#xa;Zugriffsschutz&#xa;Verschlüsselung" Resources="2" Knowledge="2" Location="0" id="WxrAOenjU9FATPxDFI2T-8">
          <ag_attributes />
          <ag_computed_attributes />
          <mxCell style="shape=attackgraphs.node;fillColor=#DAE8FC;verticalAlign=top;" parent="1" vertex="1">
            <mxGeometry x="2770" y="1236" width="140" height="90" as="geometry" />
          </mxCell>
        </object>
        <object id="kCRQuWALBWs58FWQ3LFZ-2">
          <ag_attributes />
          <ag_computed_attributes />
          <mxCell style="rounded=0;orthogonalLoop=1;jettySize=auto;html=1;strokeWidth=2;startArrow=diamondThin;startFill=1;endArrow=none;endFill=0;strokeColor=#000000;" parent="1" source="1qkWPqTPLnTGLn8MYxJF-21" target="kCRQuWALBWs58FWQ3LFZ-1" edge="1">
            <mxGeometry relative="1" as="geometry">
              <mxPoint x="810" y="926" as="sourcePoint" />
              <mxPoint x="706.875" y="976" as="targetPoint" />
            </mxGeometry>
          </mxCell>
        </object>
        <object label="Zugangsbeschränkung&#xa;Objektschutz&#xa;Physischer Schutz&#xa;Redundanz" Resources="3" Knowledge="1" Location="1" id="Ix9G6hSQ4KYSyDZbYxxm-2">
          <ag_attributes />
          <ag_computed_attributes />
          <ag_aggregation_function_reference ag_aggregation_function_reference="ag_none_function" />
          <mxCell style="shape=attackgraphs.node;fillColor=#DAE8FC;verticalAlign=top;align=left;" parent="1" vertex="1">
            <mxGeometry x="495" y="1196" width="150" height="90" as="geometry" />
          </mxCell>
        </object>
        <object label="Resilienz" Resources="2" Knowledge="3" Location="0" id="Ix9G6hSQ4KYSyDZbYxxm-4">
          <ag_attributes />
          <ag_computed_attributes />
          <mxCell style="shape=attackgraphs.node;fillColor=#DAE8FC;verticalAlign=top;" parent="1" vertex="1">
            <mxGeometry x="320" y="1386" width="150" height="50" as="geometry" />
          </mxCell>
        </object>
        <object label="" id="Ix9G6hSQ4KYSyDZbYxxm-5">
          <ag_attributes />
          <ag_computed_attributes />
          <mxCell style="endArrow=none;dashed=1;html=1;dashPattern=1 3;strokeWidth=1;rounded=0;strokeColor=#000000;startArrow=none;" parent="1" edge="1">
            <mxGeometry width="50" height="50" relative="1" as="geometry">
              <mxPoint x="1040" y="1353.5813953488373" as="sourcePoint" />
              <mxPoint x="3120" y="1356" as="targetPoint" />
            </mxGeometry>
          </mxCell>
        </object>
        <object label="Mitarbeiterschulung&#xa;Validierung und Tests (inkl. regelmäßige Wiederholung)&#xa;Vier-Augen-Prinzip" Resources="3" Knowledge="3" Location="0" id="Ix9G6hSQ4KYSyDZbYxxm-8">
          <ag_attributes />
          <ag_computed_attributes />
          <mxCell style="shape=attackgraphs.node;fillColor=#DAE8FC;align=left;verticalAlign=top;spacingLeft=2;" parent="1" vertex="1">
            <mxGeometry x="1520" y="1026" width="330" height="80" as="geometry" />
          </mxCell>
        </object>
        <object label="Replay-Schutz" Resources="2" Knowledge="2" Location="0" id="Ix9G6hSQ4KYSyDZbYxxm-13">
          <ag_attributes />
          <ag_computed_attributes />
          <mxCell style="shape=attackgraphs.node;fillColor=#DAE8FC;verticalAlign=top;" parent="1" vertex="1">
            <mxGeometry x="2560" y="1236" width="150" height="50" as="geometry" />
          </mxCell>
        </object>
        <object label="Zugangsbeschränkung&#xa;Objektschutz&#xa;Physischer Schutz&#xa;Redundanz" Resources="3" Knowledge="1" Location="1" id="Ix9G6hSQ4KYSyDZbYxxm-18">
          <ag_attributes />
          <ag_computed_attributes />
          <ag_aggregation_function_reference ag_aggregation_function_reference="ag_none_function" />
          <mxCell style="shape=attackgraphs.node;fillColor=#DAE8FC;verticalAlign=top;align=left;" parent="1" vertex="1">
            <mxGeometry x="2190" y="1236" width="150" height="90" as="geometry" />
          </mxCell>
        </object>
        <object label="Security-Monitoring" Resources="1" Knowledge="1" Location="0" id="Ix9G6hSQ4KYSyDZbYxxm-24">
          <ag_attributes />
          <ag_computed_attributes />
          <mxCell style="shape=attackgraphs.node;fillColor=#DAE8FC;align=left;verticalAlign=top;spacingLeft=2;portConstraint=none;" parent="1" vertex="1">
            <mxGeometry x="1875" y="1236" width="120" height="50" as="geometry" />
          </mxCell>
        </object>
        <object label="" id="Ix9G6hSQ4KYSyDZbYxxm-43">
          <ag_attributes />
          <ag_computed_attributes />
          <mxCell style="endArrow=none;dashed=1;html=1;dashPattern=1 3;strokeWidth=1;rounded=0;strokeColor=#000000;" parent="1" edge="1">
            <mxGeometry width="50" height="50" relative="1" as="geometry">
              <mxPoint x="238" y="1320" as="sourcePoint" />
              <mxPoint x="1040" y="1318" as="targetPoint" />
            </mxGeometry>
          </mxCell>
        </object>
        <object label="Redundanz&#xa;Plausibilitätsprüfung" Resources="2" Knowledge="2" Location="0" id="Ix9G6hSQ4KYSyDZbYxxm-44">
          <ag_attributes />
          <ag_computed_attributes />
          <mxCell style="shape=attackgraphs.node;fillColor=#DAE8FC;verticalAlign=top;align=left;" parent="1" vertex="1">
            <mxGeometry x="890" y="1386" width="140" height="70" as="geometry" />
          </mxCell>
        </object>
        <object label="Zugriffsschutz&#xa;Sicherer Datenspeicher&#xa;Zugangsbeschränkung&#xa;Redundanz&#xa;Verschlüsselung&#xa;Digitale Signatur&#xa;Physische Eigenschaften des LWL prüfen&#xa;Plausibilitätsprüfung" Resources="3" Knowledge="4" Location="0" id="kCRQuWALBWs58FWQ3LFZ-1">
          <ag_attributes />
          <ag_computed_attributes />
          <mxCell style="shape=attackgraphs.node;fillColor=#DAE8FC;verticalAlign=top;" parent="1" vertex="1">
            <mxGeometry x="1057.88" y="1246" width="230" height="160" as="geometry" />
          </mxCell>
        </object>
      </root>
    </mxGraphModel>
  </diagram>
</mxfile>
